<?xml version="1.0" encoding="utf-8"?>
<!-- Generator: Adobe Illustrator 19.0.0, SVG Export Plug-In . SVG Version: 6.00 Build 0)  -->
<svg version="1.1" xmlns="http://www.w3.org/2000/svg" xmlns:xlink="http://www.w3.org/1999/xlink" x="0px" y="0px"
	 viewBox="150.549 0 509.974 595.281" enable-background="new 150.549 0 509.974 595.281" xml:space="preserve">
<g id="Capa_2_1_">
	<g>
		<path fill="#FF0000" d="M370.778,99.14c-11.276,3.603-23.812,8.632-34.733,14.359c-17.88,9.376-40.624,21.334-50.365,40.302
			l-8.661-16.515c2.963-10.157,8.063-18.005,16.586-24.689l-6.032,5.294c23.294-21.775,58.412-37.802,89.557-43.621
			c14.396-2.509,29.213-3.785,43.813-3.63"/>
		<g>
			<path d="M370.114,96.73c-17.629,5.709-34.268,13.555-50.333,22.747c-14.233,8.144-28.382,18.284-36.259,33.063
				c1.439,0,2.878,0,4.317,0c-2.546-4.855-5.092-9.71-7.639-14.565c-0.33-0.629-0.66-1.259-0.99-1.888
				c0.85,1.62,1.604-2.288,1.702-2.554c0.614-1.676,1.407-3.265,2.218-4.85c2.912-5.694,7.308-10.334,12.243-14.318
				c-1.178-1.178-2.357-2.357-3.535-3.535c-2.011,1.765-4.021,3.529-6.032,5.294c1.178,1.178,2.357,2.357,3.535,3.535
				c35.369-32.655,84.253-46.82,131.603-46.518c3.226,0.02,3.224-4.98,0-5c-48.69-0.311-98.8,14.433-135.138,47.983
				c-2.385,2.202,1.131,5.646,3.535,3.535c2.011-1.765,4.022-3.529,6.032-5.294c2.457-2.156-1.075-5.521-3.535-3.535
				c-4.942,3.989-9.057,8.584-12.313,14.041c-1.683,2.821-6.331,10.497-4.631,13.739c2.876,5.484,5.752,10.969,8.629,16.453
				c0.858,1.637,3.454,1.62,4.317,0c7.521-14.11,20.956-23.423,34.465-31.269c15.613-9.067,31.951-16.677,49.139-22.243
				C374.497,100.562,373.19,95.733,370.114,96.73L370.114,96.73z"/>
		</g>
	</g>
</g>
<g id="Capa_1">
	<g id="Capa_1_1_">
		<g id="XMLID_1_">
			<g id="XMLID_295_">
				<path id="XMLID_345_" d="M418.552,468.062c-1.407,0-2.814,0-3.94,0c-10.414,0-20.828,0-31.241,0
					c-5.066,0-6.192,0.563-6.474,5.91c-0.844,10.414-2.533,20.547-4.785,30.68c-1.126,5.91-2.815,11.82-5.629,17.449
					c-2.251,4.223-3.94,4.785-8.725,3.379c-7.036-2.252-12.947-6.193-18.294-10.695c-15.199-12.947-28.427-27.584-39.123-44.471
					c-1.97-3.096-3.096-6.756-4.222-10.133c-0.563-1.971-1.689-3.096-3.94-3.939c-15.199-3.941-30.116-9.57-43.907-17.17
					c-1.689-1.125-3.659-1.971-5.629-2.814c-13.792-6.473-23.079-16.887-27.864-31.242c-9.006-27.02-8.725-54.039-0.563-81.34
					c2.815-9.008,7.037-17.451,12.947-25.051c7.036-9.006,16.043-15.198,27.02-18.294c1.407-0.563,2.814-0.563,4.503-0.844
					c2.815-0.282,2.815-0.282,3.378-3.096c0.845-3.659,1.407-7.318,2.533-10.977c1.126-3.94,2.533-7.88,3.659-11.821
					c0.563-1.407,0.844-2.815,0.281-4.222c-3.94-10.414-4.222-21.391-3.659-32.367c0-1.407,0-3.096,0-4.503
					c0-3.378,0.563-4.503,3.94-5.066c5.348-1.125,10.977-2.251,16.325-3.096c2.533-0.282,3.659-1.126,4.503-3.659
					c12.947-34.619,32.367-64.735,59.668-90.066c18.858-17.45,40.53-30.397,63.891-40.811c12.947-5.911,26.457-10.977,40.529-14.073
					c3.66-0.845,7.6-0.845,11.26-1.126c1.969,0,3.377,1.126,3.939,2.814c0.563,2.252,1.125,4.503,0.844,6.755
					c-0.281,5.066-0.563,10.414-1.125,15.48c-1.408,13.228-1.408,26.456,0.563,39.685c2.533,16.606,7.037,32.93,13.228,48.692
					c1.971,4.785,3.941,9.57,5.91,14.355c1.127,2.533,2.252,4.785,3.379,7.036c4.502,8.163,4.502,8.163,13.51,9.288
					c2.814,0.282,5.629,0.845,8.443,1.407c6.191,0.845,9.006,5.066,10.133,10.695c1.125,7.318,1.406,14.636-0.846,21.954
					c-1.125,3.377-0.563,5.91,0.846,8.725c5.348,9.851,10.414,19.702,15.479,29.553c0.564,1.126,1.127,2.251,2.814,2.814
					c12.666,3.659,23.361,10.977,32.65,19.983c15.48,14.917,23.924,33.493,26.176,54.884c1.688,15.199-0.565,29.834-5.631,44.189
					c-2.814,8.162-7.035,15.762-13.51,21.953c-2.814,2.814-5.629,5.629-8.443,8.443c-3.377,3.377-7.035,6.191-11.539,8.162
					s-9.006,3.66-13.229,6.193c-12.385,7.035-26.176,10.695-39.685,15.197c-2.252,0.846-3.658,1.689-4.504,3.941
					c-0.563,1.969-1.688,3.658-2.533,5.348c-3.096,8.443-8.443,15.481-14.354,22.234c-10.695,11.82-22.234,22.516-35.744,31.242
					c-4.504,3.096-9.57,5.348-14.637,7.6c-4.785,2.25-9.287,0-10.977-4.785c-3.658-10.133-5.629-20.547-6.755-31.242
					c-0.563-5.348-0.563-10.695-0.845-16.324C418.834,470.033,418.552,469.187,418.552,468.062z M273.321,257.533
					c-0.281,0.563-0.563,0.844-0.563,1.125c-0.281,1.689-0.844,3.378-1.125,5.066c-3.096,15.48-5.348,30.96-5.911,46.441
					c-0.563,12.664-0.563,25.049,1.97,37.434c1.407,6.754,3.377,13.51,6.755,19.42c1.126,1.971,2.814,3.941,4.503,5.348
					c1.407,1.408,2.814,1.125,4.222-0.281c0.844-1.125,1.689-2.252,2.251-3.377c0.845-2.533,1.689-5.066,1.97-7.6
					c1.407-8.443,1.407-16.889,0.845-25.613c-0.282-7.6-0.845-15.48-1.126-23.078c0-1.408,0.281-3.098,0.563-4.504
					c0.281-1.127,1.125-1.971,2.533-1.971c1.407,0,2.251,0.844,2.533,1.971c0.282,0.844,0.282,1.688,0.563,2.815
					c0,3.096,1.689,5.066,4.503,6.191c3.096,1.408,6.192,2.814,9.288,3.941c15.199,5.348,30.96,7.6,46.722,8.725
					c32.086,2.252,64.172,0.844,95.696-4.785c22.797-3.94,44.752-10.414,65.859-20.547c2.252-1.125,4.785-2.25,5.912-4.783
					c0.844-1.69,2.815-1.69,3.658,0.281c0.563,1.125,0.844,2.533,0.844,3.658c0.565,10.414,1.127,20.828,1.971,30.961
					c0.844,10.414,1.69,20.828,4.223,31.242c0.563,1.688,1.125,3.658,1.688,5.348c1.689,3.377,3.66,3.377,5.912,0.563
					c0.844-1.127,1.688-2.533,2.25-3.66c5.631-12.945,8.445-26.457,6.193-40.811c-3.379-19.701-9.289-38.56-18.014-56.573
					c-3.658-7.599-7.318-14.917-10.977-22.235c-0.281-0.563-0.844-1.126-1.127-1.689c-0.281,0-0.563,0-0.563,0
					c-0.281,0.563-0.844,0.845-1.125,1.407c-6.191,9.851-14.918,16.043-26.176,19.139c-11.258,3.096-22.516,4.222-34.338,2.252
					c-19.139-3.096-33.492-13.228-41.937-30.679c-1.125-2.533-2.251-5.348-3.378-7.88c-12.103,1.688-23.923,1.407-36.308,1.407
					c-0.282,1.407-0.563,2.533-0.844,3.659c-1.407,5.911-3.096,11.54-6.474,16.606c-5.629,9.007-14.073,14.636-23.924,17.45
					c-12.384,3.377-24.768,3.94-37.434,1.97c-11.821-1.689-22.798-5.911-31.523-14.354
					C274.165,257.814,273.884,257.814,273.321,257.533z M408.983,215.596c0.281-1.689,0.281-3.378,0.563-5.066
					c0.281-1.688,0.844-3.378,1.689-4.785c2.533-3.659,5.911-5.911,10.695-5.911c1.127,0,2.533-0.281,3.66-0.281
					c19.139-1.689,38.277-2.533,57.416-2.252c1.127,0,2.252,0,3.66-0.281c-0.564-0.844-0.846-1.689-1.127-2.252
					c-2.814-5.348-6.191-10.695-8.443-16.043c-3.377-8.443-6.754-16.887-9.287-25.612c-5.348-17.169-9.008-34.9-8.727-52.914
					c0.281-7.599,1.127-15.48,1.689-23.079c0.563-5.066,1.406-10.132,2.252-14.917c0.281-1.407,0.844-3.096-0.846-4.222
					c-4.783,1.689-9.287,3.659-13.791,5.348c-17.168,6.192-33.774,13.791-49.536,22.798c-25.894,14.073-48.692,32.086-66.987,55.447
					c-14.354,18.294-25.894,37.997-35.463,59.105c-0.281,0.563-0.281,1.126-0.281,1.689c2.251,0,3.94-0.281,5.629-0.281
					c20.828-1.97,41.937-2.533,62.765-0.845c1.126,0,2.533,0.282,3.659,0.563c5.629,1.126,7.599,3.94,7.036,9.851
					c-0.281,1.689-0.844,3.378,0.282,4.785C386.748,216.159,397.725,215.877,408.983,215.596z M438.818,458.21
					c1.688,0,2.815-0.281,3.94-0.281c6.475-0.844,12.947-1.406,19.139-2.533c13.229-2.533,26.176-5.348,39.404-7.881
					c3.66-0.844,3.941-1.125,3.66-5.066c-0.564-8.725-0.846-17.449-1.971-26.174c-4.504-29.271-12.666-57.699-23.361-85.564
					c-0.281-1.125-0.844-1.969-1.406-3.377c-7.037,1.689-13.512,3.377-20.266,4.504c-6.756,1.406-13.791,2.533-20.547,3.658
					C438.537,376.589,439.943,417.119,438.818,458.21z M370.142,459.056c-5.911-40.25-4.785-79.934,0.844-119.619
					c-1.126,0-2.251-0.281-3.096-0.281c-6.755-0.564-13.51-0.846-20.265-1.689c-7.599-0.844-15.199-2.252-22.798-3.377
					c-2.533-0.281-2.533-0.281-3.659,1.969c-1.126,2.252-1.97,4.504-3.096,7.037c-10.132,23.643-15.198,48.41-12.665,74.305
					c1.125,12.104,4.503,23.361,9.851,34.338c0.563,1.125,1.407,1.971,2.533,1.971c0.844,0,1.689,0.281,2.814,0.563
					c15.48,2.533,30.679,4.221,46.44,5.066C367.89,459.056,368.735,459.056,370.142,459.056z M430.091,336.904
					c-17.731,0.844-35.463,1.688-53.476,2.814c0,0.844-0.281,1.406-0.281,2.252c-0.563,15.762-1.407,31.805-1.689,47.564
					c-0.563,21.109,0.282,42.219,2.252,63.328c0.281,2.252,0.563,4.223,0.844,6.193c8.162,1.688,49.254,0.844,54.039-0.846
					L430.091,336.904z M556.747,346.753c-0.281,0-0.563,0-0.844,0c-0.281,0.564-0.281,1.127-0.565,1.971
					c-2.25,7.318-4.502,14.918-6.754,22.236c-1.127,3.096-2.814,5.91-5.629,8.162c-4.785,3.94-11.258,3.377-14.918-1.971
					c-1.406-1.971-2.252-3.941-3.096-6.191c-1.125-3.66-1.971-7.037-2.252-10.697c-2.252-15.197-2.815-30.678-2.815-46.158
					c0-1.406,0-2.533,0-4.504c-4.504,2.533-8.162,4.504-12.102,6.475c-3.941,1.971-7.881,3.658-12.103,5.348
					c-3.94,1.69-8.162,3.096-12.385,4.504c0.281,0.844,0.564,1.406,0.846,1.688c2.252,4.223,4.502,8.727,6.191,12.947
					c8.443,20.547,14.637,41.938,18.857,63.891c2.533,12.666,3.941,25.613,3.096,38.56c0,0.281,0.281,0.281,0.281,0.563
					c0.281,0,0.564,0.281,0.846,0c5.629-1.971,11.258-3.941,16.887-6.193c4.223-1.688,8.162-3.94,12.103-5.91
					c5.91-3.096,11.539-6.191,17.449-9.006c1.69-0.844,2.533-2.252,2.815-3.941c0-1.125,0.281-1.969,0.563-3.096
					c2.252-18.014,0.846-35.744-3.096-53.477C559.281,356.605,557.872,351.82,556.747,346.753z M305.97,450.894
					c-0.281-1.127-0.563-1.408-0.844-1.689c-4.504-8.443-6.755-17.451-8.162-26.738c-2.533-16.605-1.407-33.213,2.533-49.537
					c3.377-14.072,7.88-27.582,16.043-39.404c0.281-0.281,0.281-0.844,0.281-1.125c-7.037-2.814-13.792-5.348-20.828-8.162
					c0,1.125,0,1.971,0.281,3.096c1.126,8.725,1.407,17.732,0.844,26.457c-0.281,4.785-1.126,9.57-1.97,14.353
					c-0.844,3.66-2.251,7.318-5.066,10.133c-4.222,4.223-9.851,5.348-14.636,1.971c-2.533-1.689-4.785-3.939-6.192-6.473
					c-2.252-3.66-4.222-7.6-5.629-11.541c-3.659-9.287-4.785-18.857-5.629-28.709c0-0.844-0.282-1.688-0.282-2.814
					c-0.844,0.846-1.126,1.689-1.407,2.533c-3.377,11.26-5.911,22.518-7.881,34.057c-1.97,13.51-2.814,27.02-0.844,40.529
					c0.844,5.348,1.689,10.976,4.222,16.043c3.096,6.475,7.318,11.822,14.636,14.637c12.103,4.785,24.487,8.443,37.152,11.539
					C303.718,450.611,304.563,450.611,305.97,450.894z M260.092,284.552c-3.378,1.689-6.473,2.815-9.288,4.222
					c-8.725,4.222-15.48,10.131-20.546,18.577c-1.97,3.377-3.94,7.035-5.629,10.695c-4.785,10.977-7.036,22.234-8.162,34.055
					c-1.126,16.326,0,32.086,5.066,47.848c3.096,9.852,8.444,18.014,17.169,23.924c0.282,0.283,0.845,0.565,1.126,0.846
					c0.563,0.281,1.126,0.563,1.97,1.125c0-0.844,0-1.125-0.281-1.406c-4.503-11.26-5.348-22.799-5.066-34.619
					c0.281-14.637,3.096-28.99,6.755-43.346c2.814-10.977,6.474-21.953,11.821-32.086c1.407-2.533,1.97-5.066,2.252-7.881
					c0.563-5.91,1.407-11.82,1.97-17.731C259.811,287.367,259.811,286.241,260.092,284.552z M571.666,414.585
					c4.502-3.941,8.725-7.037,11.258-12.104c5.91-12.947,10.133-26.457,10.414-40.529c0.281-35.182-15.48-61.076-45.879-78.245
					c-0.563-0.281-1.406-0.563-1.969-0.844c0,0.563-0.281,0.844-0.281,0.844c0.281,0.844,0.563,1.689,0.844,2.533
					c4.223,10.977,7.318,22.235,9.287,34.057c0.565,3.94,1.69,7.598,3.098,11.258c2.814,7.316,5.629,14.354,7.881,21.672
					c5.629,19.42,8.162,39.123,5.629,59.105C571.382,412.896,571.666,413.177,571.666,414.585z M433.189,519.568
					c1.688-1.125,3.096-1.688,4.221-2.533c11.539-7.035,21.672-15.478,31.805-24.486c7.318-6.473,14.072-13.228,19.984-21.109
					c3.377-4.502,5.629-9.568,7.881-14.916c-8.162,1.406-15.762,3.377-23.643,4.783c-8.162,1.408-16.043,2.816-24.205,3.941
					c-7.881,1.125-16.043,1.69-24.205,2.533C426.433,485.23,430.375,501.837,433.189,519.568z M370.142,467.5
					c-22.517-1.408-44.752-3.941-67.55-8.727c1.97,4.785,3.659,8.727,6.192,12.385c8.725,11.822,18.295,22.799,28.99,32.932
					c5.348,5.348,10.977,10.412,17.45,14.353c1.126,0.844,2.533,1.406,3.94,1.971c0.563-1.127,0.844-1.971,1.126-2.814
					c3.94-14.918,7.036-30.117,9.569-45.598C370.423,470.595,370.142,469.187,370.142,467.5z M433.47,251.341
					c9.006,7.599,18.857,12.947,30.959,13.51c1.127-3.377,1.689-6.192,2.814-9.007c5.912-15.199,11.541-30.679,17.451-45.877
					c0.563-1.125,0.844-2.533,1.406-3.94c-1.688,0-2.814-0.281-3.939-0.281c-7.6,0-15.199,0-22.799-0.281
					c-3.377,0-5.348,0.844-6.754,3.94c-5.629,12.384-11.539,24.768-17.451,37.152C434.595,248.245,434.033,249.652,433.47,251.341z
					 M343.685,208.841c-0.844-0.282-1.126-0.282-1.407-0.282c-8.725,0.282-17.732,0.563-26.457,0.563
					c-1.689,0-2.815,0.844-3.659,2.252c-9.007,13.51-15.762,28.146-19.702,43.907c-0.563,1.689-0.563,3.659-0.844,5.348
					c7.036,3.377,14.073,4.503,21.391,5.348c1.689,0.282,2.251-0.563,2.815-1.97c0.844-2.533,1.97-5.066,3.096-7.599
					c6.474-15.199,14.354-29.553,22.798-43.625C341.996,211.374,342.841,210.248,343.685,208.841z M472.872,264.006
					c1.408,0,2.533,0,3.379-0.281c4.785-1.126,9.85-2.251,14.635-3.94c5.348-1.688,9.852-5.066,12.947-9.851
					c3.096-4.503,5.91-9.288,8.443-14.073c4.785-8.443,4.504-17.731,4.223-27.02c0-0.282-0.281-0.282-0.563-0.845
					c-6.756-1.125-13.793-1.125-21.391-1.407C487.509,225.728,480.191,244.585,472.872,264.006z M367.327,209.685
					c-0.844-0.282-1.97-0.563-3.096-0.563c-3.096-0.281-5.911-0.281-9.007-0.563c-2.814-0.281-4.222,0.845-5.629,3.378
					c-8.725,17.45-17.45,34.619-26.176,51.788c-0.281,0.563-0.281,1.126-0.563,2.252c10.695-0.282,21.109-1.97,29.553-8.444
					c2.251-1.689,4.503-3.659,5.911-6.192C366.202,238.394,371.268,225.165,367.327,209.685z M284.298,256.688
					c0.844-9.007,3.659-16.888,7.036-24.487c3.377-7.6,7.6-14.918,12.665-21.672c-4.785-0.844-30.679,1.97-33.774,3.377
					c0,0.282-0.282,0.845-0.282,1.407c0.563,6.474,0.844,13.229,1.689,19.702c0.563,5.348,2.251,10.414,5.066,14.917
					C278.95,252.466,280.92,254.718,284.298,256.688z M427.841,244.304c4.502-13.51,10.977-25.894,18.293-37.715
					c-3.658-0.844-26.737,0.282-29.833,1.126C414.612,218.973,420.241,237.549,427.841,244.304z M375.771,226.291
					c9.57-0.844,18.857-1.689,28.145-2.533c-8.725-1.407-17.45-1.126-26.175-0.281c-0.281,0-0.563,0-0.563,0
					C375.49,223.758,375.208,224.602,375.771,226.291z"/>
				<path id="XMLID_321_" fill="#76AADB" stroke="#76AADB" stroke-width="2" stroke-miterlimit="10" d="M273.321,257.533
					c0.563,0.281,0.844,0.281,1.126,0.563c8.725,8.725,19.702,12.665,31.523,14.354c12.665,1.97,25.05,1.689,37.434-1.97
					c10.132-2.815,18.294-8.443,23.923-17.45c3.096-5.066,5.066-10.977,6.474-16.606c0.282-1.126,0.563-2.533,0.845-3.659
					c12.103,0,24.205,0.281,36.308-1.408c1.126,2.533,2.251,5.348,3.377,7.881c8.444,17.732,22.798,27.583,41.937,30.679
					c11.541,1.97,23.08,0.845,34.338-2.251c10.977-3.096,19.984-9.569,26.176-19.139c0.281-0.563,0.563-0.844,1.125-1.407
					c0,0,0.283,0,0.565,0c0.281,0.563,0.844,0.844,1.125,1.689c3.658,7.318,7.6,14.917,10.977,22.235
					c8.443,18.013,14.637,36.871,18.014,56.572c2.252,14.355-0.563,27.584-6.191,40.813c-0.564,1.406-1.408,2.533-2.252,3.658
					c-2.252,2.814-4.504,2.533-5.912-0.563c-0.844-1.689-1.406-3.379-1.688-5.348c-2.533-10.133-3.377-20.828-4.223-31.242
					c-0.844-10.414-1.406-20.828-1.969-30.961c0-1.125-0.283-2.533-0.846-3.658c-0.844-1.689-3.096-1.971-3.658-0.281
					c-1.127,2.814-3.66,3.658-5.91,4.785c-20.828,10.131-43.065,16.605-65.861,20.545c-31.805,5.631-63.609,7.037-95.695,4.785
					c-15.762-1.125-31.523-3.377-46.722-8.725c-3.096-1.125-6.192-2.533-9.288-3.941c-2.815-1.125-4.503-3.096-4.503-6.191
					c0-0.844-0.281-1.971-0.563-2.815c-0.281-1.125-1.126-1.971-2.533-1.971c-1.407,0-2.252,0.846-2.533,1.971
					c-0.282,1.408-0.563,3.096-0.563,4.504c0.281,7.6,0.844,15.48,1.125,23.078c0.282,8.445,0.282,17.17-0.844,25.613
					c-0.281,2.533-1.126,5.066-1.97,7.6c-0.563,1.125-1.407,2.533-2.251,3.377c-1.407,1.408-2.815,1.689-4.222,0.281
					c-1.689-1.688-3.378-3.377-4.503-5.348c-3.659-5.91-5.348-12.664-6.755-19.42c-2.533-12.385-2.533-25.049-1.971-37.434
					c0.845-15.762,2.815-31.242,5.911-46.44c0.282-1.689,0.845-3.378,1.126-5.066C272.758,258.377,273.04,258.096,273.321,257.533z
					 M403.072,249.652v-0.282c-8.725,1.408-17.45,2.815-26.175,4.222c-2.533,0.563-4.222,1.97-4.222,4.785
					c0,1.97-0.281,3.94,0,5.911c1.689,7.036,3.659,13.791,7.881,19.702c7.881,11.258,20.546,10.977,28.146-0.563
					c5.066-7.881,6.473-16.325,5.91-25.331c0-1.126-0.281-2.533-0.563-3.659c-0.845-2.533-2.252-4.222-5.066-4.222
					C406.731,249.933,405.043,249.652,403.072,249.652z"/>
				<path id="XMLID_320_" fill="#76AADB" stroke="#76AADB" stroke-width="2" stroke-miterlimit="10" d="M408.983,215.596
					c-11.258,0.281-21.954,0.563-32.93,0.844c-1.126-1.407-0.563-3.096-0.282-4.785c0.844-5.911-1.407-8.725-7.036-9.851
					c-1.126-0.281-2.533-0.281-3.659-0.563c-21.109-1.688-41.937-1.125-62.765,0.845c-1.689,0.281-3.659,0.281-5.629,0.281
					c0.282-0.844,0-1.407,0.282-1.689c9.569-21.109,21.109-40.811,35.463-59.105c18.295-23.361,41.093-41.093,66.987-55.447
					c16.043-8.725,32.367-16.324,49.537-22.798c4.502-1.689,9.287-3.659,13.791-5.348c1.688,1.126,0.844,2.814,0.844,4.222
					c-0.563,5.066-1.689,10.132-2.252,14.917c-0.844,7.599-1.688,15.48-1.688,23.08c-0.564,18.294,3.096,35.745,8.725,52.914
					c2.814,8.725,5.91,17.169,9.287,25.612c2.252,5.629,5.629,10.696,8.443,16.043c0.283,0.563,0.564,1.125,1.127,2.251
					c-1.408,0-2.533,0.281-3.66,0.281c-19.139-0.281-38.277,0.282-57.416,2.252c-1.125,0-2.533,0.563-3.658,0.281
					c-4.786,0-8.163,2.252-10.696,5.911c-0.844,1.407-1.407,3.096-1.688,4.785C409.264,212.218,408.983,213.907,408.983,215.596z"/>
				<path id="XMLID_319_" fill="#C64832" stroke="#C64832" stroke-width="2" stroke-miterlimit="10" d="M438.818,458.21
					c1.125-41.092-0.281-81.621-1.971-122.434c7.037-1.125,13.791-2.252,20.547-3.658c6.754-1.408,13.51-3.096,20.264-4.504
					c0.563,1.127,1.127,2.252,1.408,3.379c10.695,27.582,19.139,56.01,23.361,85.562c1.406,8.725,1.406,17.449,1.969,26.174
					c0.281,3.941,0,4.223-3.658,5.066c-12.947,2.815-26.176,5.629-39.404,7.881c-6.191,1.127-12.666,1.689-19.139,2.533
					C441.632,458.21,440.505,458.21,438.818,458.21z"/>
				<path id="XMLID_318_" fill="#C64832" stroke="#C64832" stroke-width="2" stroke-miterlimit="10" d="M370.142,459.056
					c-1.126,0-2.252,0-3.378,0c-15.48-0.846-30.96-2.533-46.44-5.066c-0.844-0.281-1.689-0.281-2.815-0.564
					c-1.407-0.281-1.97-0.844-2.533-1.969c-5.066-10.977-8.444-22.236-9.851-34.338c-2.533-25.895,2.251-50.381,12.665-74.305
					c1.126-2.252,1.97-4.504,3.096-7.037c1.126-2.252,1.126-2.252,3.659-1.969c7.6,1.125,15.199,2.533,22.798,3.377
					c6.755,0.844,13.51,1.125,20.265,1.688c1.126,0,1.97,0.283,3.096,0.283C365.357,379.123,364.231,418.806,370.142,459.056z"/>
				<path id="XMLID_317_" fill="#FFFFFF" stroke="#FFFFFF" stroke-width="2" stroke-miterlimit="10" d="M430.091,336.904
					c0-0.281,1.689,121.307,1.689,121.307c-4.785,1.689-46.159,2.533-54.039,0.846c-0.281-1.971-0.563-4.223-0.844-6.193
					c-1.97-21.109-2.814-42.219-2.252-63.328c0.282-15.76,1.126-31.803,1.689-47.564c0-0.846,0.281-1.69,0.281-2.252
					C394.628,338.873,412.36,338.029,430.091,336.904z"/>
				<path id="XMLID_316_" fill="#FFFFFF" stroke="#FFFFFF" stroke-width="2" stroke-miterlimit="10" d="M556.747,346.753
					c1.406,5.066,2.815,9.852,3.94,14.918c3.941,17.732,5.348,35.463,3.098,53.477c0,1.127-0.283,1.971-0.564,3.096
					c0,1.971-1.125,3.096-2.815,3.941c-5.91,3.096-11.539,6.191-17.449,9.006c-3.941,1.971-7.881,4.223-12.103,5.91
					c-5.629,2.252-11.258,4.223-16.887,6.193c-0.281,0-0.563,0-0.844,0c-0.283-0.281-0.283-0.564-0.283-0.564
					c0.846-12.945-0.844-25.893-3.096-38.559c-4.221-21.953-10.414-43.344-18.857-63.891c-1.971-4.504-4.221-8.725-6.191-12.947
					c-0.281-0.563-0.563-1.125-0.844-1.688c4.221-1.69,8.443-3.098,12.383-4.504c3.941-1.69,8.162-3.377,12.103-5.348
					c3.939-1.971,7.6-3.941,12.102-6.475c0,1.971,0,3.379,0,4.504c-0.281,15.48,0.281,30.961,2.815,46.158
					c0.564,3.66,1.408,7.318,2.252,10.695c0.563,2.252,1.69,4.223,3.096,6.193c3.66,5.066,9.852,5.91,14.918,1.969
					c2.533-2.25,4.504-5.064,5.629-8.162c2.252-7.316,4.504-14.635,6.756-22.234c0.281-0.563,0.281-1.125,0.563-1.971
					C556.185,346.753,556.466,346.753,556.747,346.753z"/>
				<path id="XMLID_315_" fill="#FFFFFF" stroke="#FFFFFF" stroke-width="2" stroke-miterlimit="10" d="M305.97,450.894
					c-1.407-0.283-2.252-0.283-3.096-0.564c-12.665-3.096-25.05-6.754-37.152-11.539c-7.318-2.814-11.54-8.162-14.636-14.637
					c-2.252-5.064-3.377-10.412-4.222-16.043c-1.97-13.51-1.126-27.02,0.844-40.529c1.688-11.539,4.503-22.797,7.881-34.057
					c0.281-0.844,0.563-1.688,1.407-2.531c0,0.844,0.281,1.687,0.281,2.814c0.563,9.85,1.97,19.42,5.629,28.707
					c1.407,3.941,3.377,7.881,5.629,11.541c1.689,2.533,3.94,4.783,6.192,6.473c4.785,3.377,10.695,2.533,14.636-1.971
					c2.815-2.814,4.222-6.191,5.066-10.131c0.844-4.785,1.689-9.57,1.97-14.355c0.563-9.006,0.281-17.73-0.844-26.457
					c0-0.844,0-1.969-0.282-3.096c7.037,2.815,13.792,5.348,20.828,8.162c0,0.281-0.282,0.844-0.282,1.127
					c-8.162,12.102-12.666,25.611-16.043,39.402c-3.94,16.326-5.066,32.65-2.533,49.537c1.407,9.287,3.94,18.295,8.163,26.738
					C305.407,449.486,305.689,449.767,305.97,450.894z"/>
				<path id="XMLID_314_" fill="#C64832" stroke="#C64832" stroke-width="2" stroke-miterlimit="10" d="M260.092,284.552
					c0,1.97-0.281,2.815-0.281,3.94c-0.563,5.911-1.407,11.821-1.97,17.732c-0.281,2.814-0.844,5.348-2.252,7.881
					c-5.348,10.133-8.725,21.109-11.821,32.086c-3.659,14.074-6.474,28.428-6.755,43.346c-0.282,11.82,0.563,23.359,5.066,34.619
					c0,0.281,0,0.563,0.282,1.406c-0.845-0.281-1.407-0.563-1.97-1.125c-0.282-0.281-0.844-0.565-1.126-0.846
					c-8.725-5.91-14.073-13.791-17.169-23.924c-5.066-15.762-6.192-31.523-5.066-47.848c0.844-11.82,3.377-23.359,8.162-34.055
					c1.689-3.66,3.659-7.318,5.629-10.695c4.785-8.164,11.821-14.355,20.546-18.577
					C253.619,287.367,256.434,285.959,260.092,284.552z"/>
				<path id="XMLID_313_" fill="#C64832" stroke="#C64832" stroke-width="2" stroke-miterlimit="10" d="M571.666,414.585
					c0-1.127-0.283-1.689,0-1.971c2.533-20.264,0-39.686-5.631-59.105c-2.25-7.318-5.064-14.637-7.881-21.672
					c-1.406-3.66-2.531-7.318-3.096-11.258c-1.688-11.541-5.066-23.08-9.287-34.057c-0.281-0.844-0.563-1.688-0.844-2.533
					c0-0.282,0-0.563,0.281-0.845c0.844,0.282,1.406,0.563,1.969,0.845c30.398,17.168,46.441,43.063,45.879,78.244
					c-0.283,14.355-4.223,27.865-10.414,40.529C580.39,407.548,576.167,410.644,571.666,414.585z"/>
				<path id="XMLID_312_" fill="#76AADB" stroke="#76AADB" stroke-width="2" stroke-miterlimit="10" d="M433.189,519.568
					c-2.814-17.73-6.756-34.338-8.445-51.787c8.445-0.844,16.326-1.408,24.205-2.533c8.164-1.125,16.045-2.252,24.207-3.941
					c7.881-1.406,15.76-3.377,23.641-4.783c-2.25,5.348-4.502,10.414-7.881,14.916c-5.91,7.6-12.664,14.637-19.982,21.109
					c-9.852,9.008-20.266,17.451-31.805,24.486C436.285,517.88,434.876,518.443,433.189,519.568z"/>
				<path id="XMLID_311_" fill="#76AADB" stroke="#76AADB" stroke-width="2" stroke-miterlimit="10" d="M370.142,467.5
					c0,1.688,0.281,3.096,0,4.502c-2.533,15.48-5.629,30.68-9.57,45.598c-0.281,0.844-0.563,1.688-1.125,2.814
					c-1.408-0.846-2.815-1.408-3.94-1.971c-6.474-3.941-12.103-9.289-17.451-14.353c-10.413-10.133-20.265-21.109-28.99-32.932
					c-2.533-3.658-4.222-7.6-6.192-12.383C325.672,463.558,347.626,466.373,370.142,467.5z"/>
				<path id="XMLID_310_" fill="#FFFFFF" d="M433.47,251.341c0.563-1.689,1.125-3.096,1.688-4.503
					c5.912-12.384,11.822-24.768,17.451-37.152c1.406-3.096,3.377-4.222,6.754-3.94c7.6,0.281,15.199,0,22.799,0.281
					c1.125,0,2.252,0,3.939,0.282c-0.563,1.688-1.125,2.814-1.406,3.94c-5.91,15.199-11.822,30.679-17.451,45.878
					c-1.125,2.814-1.688,5.629-2.814,9.006C452.328,264.288,442.476,258.94,433.47,251.341z"/>
				<path id="XMLID_309_" fill="#FFFFFF" d="M343.685,208.841c-0.844,1.407-1.407,2.533-2.251,3.659
					c-8.444,14.073-16.325,28.708-22.798,43.626c-1.126,2.533-1.97,5.066-3.096,7.599c-0.563,1.407-1.126,1.97-2.815,1.97
					c-7.317-0.844-14.354-1.97-21.391-5.348c0.282-1.689,0.282-3.659,0.845-5.348c3.94-15.762,10.695-30.397,19.702-43.907
					c0.844-1.407,1.689-2.251,3.659-2.251c8.725-0.282,17.732-0.282,26.457-0.563C342.278,208.559,342.841,208.559,343.685,208.841z
					"/>
				<path id="XMLID_308_" stroke="#000000" stroke-width="2" stroke-miterlimit="10" d="M472.872,264.006
					c7.318-19.42,14.637-38.278,21.955-57.135c7.316,0.281,14.635,0.281,21.391,1.407c0.281,0.563,0.563,0.563,0.563,0.844
					c0.563,9.288,0.844,18.576-4.223,27.02c-2.814,4.785-5.348,9.569-8.443,14.073c-3.096,4.785-7.6,8.162-12.947,9.851
					c-4.783,1.407-9.85,2.533-14.635,3.94C475.125,264.006,474.281,263.725,472.872,264.006z"/>
				<path id="XMLID_307_" stroke="#000000" stroke-width="2" stroke-miterlimit="10" d="M367.327,209.685
					c3.94,15.48-1.126,28.708-8.725,41.656c-1.407,2.533-3.659,4.503-5.911,6.192c-8.725,6.755-18.857,8.162-29.553,8.443
					c0.281-0.844,0.281-1.688,0.563-2.251c8.725-17.169,17.45-34.619,26.175-51.788c1.126-2.533,2.533-3.659,5.629-3.378
					c3.096,0.282,5.911,0.282,9.006,0.563C365.357,209.122,366.483,209.403,367.327,209.685z"/>
				<path id="XMLID_306_" stroke="#000000" stroke-width="2" stroke-miterlimit="10" d="M284.298,256.688
					c-3.659-1.97-5.629-4.222-7.318-7.037c-2.814-4.503-4.504-9.569-5.066-14.917c-0.844-6.473-1.125-12.947-1.688-19.702
					c0-0.563,0-0.844,0.281-1.407c3.096-1.689,28.99-4.222,33.775-3.378c-5.066,6.755-9.288,14.073-12.665,21.672
					C287.957,239.801,285.142,247.682,284.298,256.688z"/>
				<path id="XMLID_305_" stroke="#000000" stroke-width="2" stroke-miterlimit="10" d="M427.841,244.304
					c-7.6-7.037-13.229-25.331-11.54-36.589c2.814-0.844,26.175-1.97,29.833-1.126C438.537,218.691,432.343,231.076,427.841,244.304
					z"/>
				<path id="XMLID_304_" stroke="#000000" stroke-width="2" stroke-miterlimit="10" d="M375.771,226.291
					c-0.563-1.689-0.281-2.533,1.126-2.814c0.281,0,0.563,0,0.563,0c8.725-0.563,17.45-0.845,26.175,0.281
					C394.347,224.602,385.059,225.447,375.771,226.291z"/>
				<path id="XMLID_298_" d="M403.072,249.652c1.97,0,3.659,0.281,5.629,0.281c2.815,0.282,4.503,1.689,5.066,4.222
					c0.282,1.126,0.563,2.533,0.563,3.659c0.563,9.007-1.126,17.732-5.911,25.331c-7.599,11.54-20.265,11.821-28.146,0.563
					c-4.222-5.911-6.192-12.947-7.881-19.702c-0.563-1.97-0.281-3.94,0-5.91c0.281-2.533,1.689-4.222,4.222-4.785
					c8.726-1.407,17.451-2.814,26.176-4.222C403.072,249.37,403.072,249.652,403.072,249.652z M379.43,260.066
					c0.281,8.725,3.659,15.761,9.569,21.954c0.281,0.281,0.281,0.281,0.563,0.563c3.377,2.533,7.036,2.252,9.851-0.563
					c1.125-0.845,1.97-1.97,2.533-3.096c3.659-5.629,5.348-11.821,5.348-18.576c0-0.844-0.281-1.689-0.563-2.814
					C397.725,258.096,389,258.94,379.43,260.066z"/>
				<path id="XMLID_296_" fill="#B2D7F2" stroke="#B2D7F2" stroke-width="3" stroke-miterlimit="10" d="M379.43,260.066
					c9.288-0.845,18.294-1.689,27.301-2.815c0.281,1.126,0.563,1.97,0.563,2.815c0,6.755-1.689,12.947-5.348,18.576
					c-0.844,1.126-1.689,2.252-2.533,3.096c-3.096,2.814-6.474,3.096-9.851,0.563c-0.282,0-0.282-0.281-0.563-0.563
					C383.371,275.827,379.993,268.791,379.43,260.066z"/>
			</g>
		</g>
	</g>
	<g id="Capa_2" display="none">
		<path id="XMLID_365_" display="inline" d="M537.046,235.016c8.162,3.096,15.76,5.629,23.359,8.444
			c10.695,3.941,20.828,8.725,30.117,15.198c5.066,3.378,9.568,7.037,13.51,11.821c3.096,3.94,5.629,8.444,6.473,13.51
			c0.281,1.408,1.408,2.533,2.533,3.659c18.295,16.605,30.961,36.589,37.715,59.951c5.066,16.605,5.629,33.492,0.281,50.1
			c-0.844,2.533-1.688,4.783-3.096,7.035c-7.035,12.104-15.762,23.08-25.049,33.494c-6.193,6.754-13.229,12.383-20.266,18.295
			c-30.396,26.174-65.861,41.654-104.701,49.816c-26.176,5.629-52.352,7.881-79.089,7.881c-27.02,0-53.758-1.969-80.497-7.035
			c-21.954-4.223-43.344-10.695-63.328-21.391c-19.42-10.414-35.745-24.488-48.692-42.219c-1.126-1.408-2.252-3.096-3.377-4.504
			c-8.444-10.977-13.51-23.361-14.917-37.434c-2.251-22.516,2.533-43.344,14.354-62.482c6.474-10.695,14.917-19.422,25.894-25.332
			c1.407-0.844,1.97-1.689,2.533-3.096c2.814-10.977,7.599-21.109,12.665-31.242c1.689-3.096,2.251-6.192,2.251-9.851
			c-0.281-11.821,1.97-23.643,4.785-35.182c6.474-29.834,19.139-57.136,37.434-81.623c8.444-11.258,17.451-22.235,27.583-32.367
			c18.857-19.42,40.248-36.308,63.046-51.225c6.192-3.94,12.103-7.881,19.139-10.414c6.754-2.533,13.51-4.222,20.547-4.222
			c5.065-0.281,7.035,1.688,6.754,6.755c0,3.096-0.563,6.192-1.125,9.288c-1.689,12.102-3.379,23.924-4.785,36.026
			c-1.127,10.695-0.563,21.672,1.971,32.368c3.377,14.073,10.412,26.175,19.982,36.589c7.318,8.162,15.762,15.198,24.205,22.235
			c1.689,1.407,3.377,1.407,5.066,1.407c8.162-0.844,16.605-1.125,24.768-0.281c3.098,0.281,6.475,0.563,9.289,2.533
			c0.844,0.563,1.971,0.563,3.096,0.281c2.252-0.281,4.223,0.844,5.348,2.533c5.348,7.318,8.162,15.48,6.756,24.768
			c-0.283,1.126-0.846,2.251-1.127,3.096C538.171,232.483,537.609,233.609,537.046,235.016z M535.357,241.208
			c-0.563,0.282-0.844,0.282-0.844,0.563c-0.564,0.844-1.127,1.689-1.689,2.533c-7.6,11.821-18.014,19.42-32.086,20.265
			c-25.332,1.689-45.033-8.443-57.98-30.679c-0.563-0.844-1.125-1.688-1.688-2.533c-9.289,2.252-18.295,4.503-27.584,6.755
			c0,1.407,0.281,2.533,0.281,3.94c0.282,5.348,0.844,10.695,0.844,16.324c-0.281,12.665-6.473,21.954-16.043,29.553
			c-6.192,4.785-13.228,7.6-20.828,8.725c-30.397,4.503-57.417-3.378-79.934-24.487c-1.126-1.126-1.97-1.97-3.096-3.096
			c-0.563,0.281-0.844,0.563-0.844,0.563c-6.192,8.444-12.384,16.887-18.576,25.331c-0.563,0.844-0.844,2.251-0.844,3.658
			c0.281,4.223,0.281,8.445,1.126,12.666c1.407,9.57,3.096,18.857,5.066,28.146c0.282,1.688,1.126,3.377,2.252,4.502
			c4.503,3.66,9.569,6.756,14.354,10.133c0.563,0.563,1.689,0.563,2.814,1.127c-0.563-1.689-0.844-2.814-1.125-3.66
			c-1.407-4.502-2.815-9.287-4.222-13.791c-0.281-1.125-0.563-2.252-0.281-3.377c0-0.563,0.563-1.69,1.126-1.971
			c0.563-0.281,1.407,0.281,1.97,0.844c0.563,0.564,1.126,1.408,1.407,2.252c1.125,2.252,1.97,4.504,2.814,6.756
			c5.348,12.947,11.54,25.611,18.857,37.715c4.222,6.473,8.444,12.947,14.354,18.014c2.815,2.533,6.192,4.502,9.288,6.473
			c1.125,0.563,2.533,0.844,4.503,1.127c-0.281-2.817-0.281-4.785-1.125-6.756c-1.689-5.629-3.659-10.977-5.629-16.324
			c-6.755-18.014-13.229-36.309-17.169-55.447c-0.845-3.939-1.408-8.162-1.689-12.385c-0.281-1.969,0.844-3.096,2.533-3.096
			c1.688-0.281,2.533,0.846,2.814,2.252c0.563,1.689,0.844,3.096,1.407,4.785c4.222,14.072,8.725,27.863,13.228,41.938
			c0.563,1.688,1.689,3.096,3.378,3.658c4.503,1.408,8.725,3.096,13.229,3.939c12.102,2.533,24.768,3.66,37.152,4.223
			c13.229,0.563,26.176,0.281,39.404-1.125c19.983-1.971,39.967-4.785,59.949-8.727c2.814-0.563,5.629-0.563,8.443-0.844
			c3.941-0.281,5.912,1.408,7.6,4.785c3.66,6.754,7.881,13.228,11.822,19.982c0.563,1.127,1.406,1.971,2.533,3.379
			c0.563-2.252,1.125-3.941,1.406-5.348c3.096-16.326,5.066-32.65,4.223-49.256c-0.281-6.754-1.408-13.229-2.533-19.982
			c-1.408-7.6-4.504-9.289-12.104-7.6c-5.629,1.125-10.695,3.658-15.48,6.754c-6.191,3.66-11.82,7.881-18.012,11.822
			c-4.785,3.096-9.852,5.91-14.918,8.725c-1.125,0.563-2.533,1.125-3.939,1.125c-0.846,0-1.971-0.563-2.252-1.125
			c-0.281-0.563,0-1.689,0.281-2.533c0.563-0.844,1.406-1.406,1.971-1.689c9.006-6.473,18.012-12.945,27.02-19.42
			c4.221-2.815,9.006-5.348,13.51-7.881c3.658-1.971,7.6-3.096,11.82-3.377c7.318-0.844,12.666,2.252,15.762,8.725
			c1.408,2.814,2.533,5.91,3.377,9.008c2.252,7.598,3.098,15.479,3.66,23.641c0,0.846,0.281,1.971,0.281,3.098
			c0.844-0.283,1.125-0.283,1.689-0.565c9.568-5.348,19.42-10.695,28.988-16.043c4.223-2.533,6.475-1.969,7.6,3.098
			c0,0.562,0.281,1.125,0.281,1.687c1.689,6.756,3.66,13.229,5.631,19.984c0.281,0.563,0.563,1.125,1.125,1.969
			c0.281-0.281,0.563-0.563,0.844-0.563c5.629-12.102,10.695-24.486,12.666-37.996c0.563-4.504,1.125-9.006,0.281-13.51
			c-1.125-5.348-4.221-9.007-9.568-10.133c-2.533-0.563-5.066-1.126-7.6-1.126c-8.443-0.562-16.607,0-24.77,1.126
			c-1.688,0.282-3.377,0.282-5.066,0.563c-1.688,0-3.096-0.563-3.377-2.251c-0.281-1.408,0.281-2.533,2.252-3.377
			c1.408-0.563,3.096-1.126,4.785-1.408c4.785-0.844,9.568-1.407,14.354-2.251c0.846,0,1.689-0.281,2.814-0.563
			c-0.562-1.407-1.125-2.251-1.687-3.378c-7.318-12.947-17.17-23.924-28.147-33.775C540.705,244.585,537.89,242.897,535.357,241.208
			z M273.04,259.784c0.281,0,0.281,0.282,0.563,0.282c0.563-0.845,1.126-1.689,1.689-2.533c1.97-2.814,3.659-5.629,5.629-8.444
			c0.844-1.126,1.689-2.251,2.533-2.533c5.348-2.814,10.696-5.629,16.043-7.881c18.294-7.318,36.871-13.228,55.728-18.295
			c11.821-3.096,23.924-5.348,36.026-6.192c5.348-0.282,9.57,1.407,13.229,5.348c0.845,0.844,1.97,1.97,2.814,3.096
			c7.881-3.377,16.043-5.348,24.206-6.755c1.125-0.281,1.971-0.844,2.814-1.689c1.408-1.126,2.533-2.533,3.94-3.096
			c2.816-1.407,5.631-2.814,8.727-3.659c8.443-2.252,16.605-4.222,25.049-6.474c1.408-0.282,2.814-0.563,4.785-1.126
			c-1.408-1.126-2.533-1.97-3.377-2.533c-3.379-2.814-7.037-5.348-10.414-8.162c-15.199-13.229-26.176-29.271-30.961-49.255
			c-3.096-13.792-3.377-27.583-1.406-41.656c1.688-11.54,3.94-22.798,6.191-34.337c0.281-1.126,0.281-2.252,0.563-3.659
			c-1.125,0-1.688,0-2.252,0.282c-10.414,2.815-20.827,5.911-29.834,12.103c-7.88,5.348-15.48,10.695-23.079,16.325
			c-28.145,21.109-52.632,45.596-72.334,74.586c-16.887,24.486-28.708,51.225-34.337,80.496
			C274.728,249.652,273.884,254.718,273.04,259.784z M421.086,382.218c0,1.125-0.282,1.688-0.282,2.252
			c0.282,14.072,0.282,28.426,0.563,42.5c0.562,23.359,1.126,46.721,1.689,70.082c0,2.814,0.563,5.348,0.563,8.443
			c28.428-0.563,56.01-3.377,83.311-10.414c4.223-42.781-1.125-83.592-17.73-122.996
			C466.962,377.433,444.165,380.529,421.086,382.218z M271.069,344.503c-1.407,1.125-2.252,1.688-3.096,2.533
			c-4.785,4.502-8.725,9.85-12.384,15.197c-7.6,12.104-13.51,24.77-17.451,38.279c-3.096,10.131-4.503,20.545-3.659,30.959
			c0.563,7.037,2.814,13.51,8.162,18.576c6.474,6.756,13.51,12.947,21.109,18.295c18.576,13.229,39.404,21.109,61.639,26.457
			c0.563,0.281,1.407,0,1.97,0c0-0.563,0-1.125-0.281-1.69c-3.096-7.881-4.222-16.324-4.503-24.768
			c-0.844-21.109,0.563-41.656,7.037-61.92c0.563-1.408,0.281-2.533-0.844-3.377c-9.57-9.57-16.325-21.391-22.235-33.494
			c-0.563-1.125-1.126-2.533-1.689-3.658c-0.563-0.846-1.408-1.689-2.252-1.971c-5.629-0.844-10.695-3.941-15.199-6.756
			c-1.97-1.125-3.94-2.533-5.629-3.939c-1.407-1.127-2.814-2.252-4.222-3.377C275.291,348.724,273.321,346.753,271.069,344.503z
			 M416.864,505.496c0-0.844,0-1.125,0-1.406c-2.533-14.918-2.814-29.836-3.096-44.752c-0.563-24.77,0-49.256,1.407-74.023
			c0-0.844,0-1.689-0.281-2.814c-23.08,0-45.596-1.69-67.831-10.414c0.844,1.971,1.126,3.377,1.689,4.504
			c1.97,5.348,3.94,10.414,5.91,15.762c1.408,3.939,2.252,7.881,2.252,12.102c-0.282,6.756-4.785,10.414-11.258,9.008
			c-2.533-0.564-5.066-1.971-7.599-2.816c-0.845-0.281-1.689-0.844-2.815-1.125c-0.281,0.844-0.563,1.408-0.563,1.689
			c-4.222,23.078-5.629,46.158-3.378,69.52c0.282,4.221,1.689,8.443,2.533,12.383c0.563,3.098,2.533,4.504,5.629,5.066
			c24.486,4.504,48.973,6.756,74.023,7.037C414.612,505.496,415.738,505.496,416.864,505.496z M515.937,492.83
			c0.844-0.281,1.688-0.281,2.814-0.563c22.797-6.754,44.188-16.887,63.891-30.115c1.969-1.127,2.814-2.814,3.377-4.785
			c2.815-12.947,2.252-25.895,0.281-38.842c-3.939-25.611-11.82-49.816-23.08-73.178c-0.281-0.563-0.844-1.408-1.125-1.689
			c-7.318,3.379-14.637,6.756-21.953,10.133c-0.281,2.814-0.563,6.191-0.846,9.289c-0.844,8.725-2.25,17.73-5.064,26.174
			c-0.846,2.252-1.689,4.504-3.098,6.475c-2.252,3.939-5.067,4.504-8.443,1.406c-1.971-1.406-3.377-3.377-4.785-5.348
			c-5.066-6.754-9.287-14.072-12.664-21.672c-0.281-0.844-0.846-1.688-1.408-2.814c-2.814,1.127-5.629,2.252-7.881,3.377
			C515.091,409.519,520.72,450.048,515.937,492.83z M607.972,308.757c-0.281,1.971-0.281,3.377-0.563,4.785
			c-1.689,14.354-5.91,28.146-12.947,40.811c-2.252,4.223-6.473,5.348-10.133,7.037c-0.844,0.281-2.533-0.281-3.658-0.844
			c-0.844-0.281-1.408-0.846-2.252-1.408c0,0.563-0.281,0.844,0,0.844c0.281,0.846,0.563,1.689,1.125,2.533
			c5.066,12.385,9.289,24.77,12.103,37.715c3.658,16.326,6.191,32.932,3.941,49.537c0,0.563,0,1.127,0,1.689
			c0.563,0,0.844,0,0.844,0c0.844-0.563,1.971-1.408,2.814-2.252c12.385-10.695,23.361-22.518,33.492-35.182
			c2.252-2.814,4.223-6.193,5.631-9.289c7.316-16.043,8.443-32.93,4.502-50.1c-1.688-6.754-3.377-13.791-7.035-19.701
			c-5.912-9.289-13.51-17.168-22.518-23.643C611.632,310.728,610.224,309.884,607.972,308.757z M226.036,428.376
			c0-1.689,0-2.533,0-3.377c0.282-5.066,0.282-10.133,1.407-15.199c3.096-17.449,10.414-33.211,19.702-47.848
			c5.066-8.162,10.976-15.48,19.139-20.547c0.281-0.281,0.563-0.563,0.844-0.844c-0.281-0.844-0.563-1.69-1.126-2.533
			c-1.689-3.658-0.281-5.348,3.659-5.348c0.281,0,0.563,0,0.844-0.281c-1.126-8.725-2.533-17.451-3.659-26.457
			c-1.689,1.127-2.533,2.533-1.97,4.504c0.563,1.971-0.282,3.377-1.97,4.221c-1.97,1.127-3.94,2.252-6.192,3.379
			c-12.665,6.191-22.235,16.043-29.271,28.145c-7.599,13.228-11.539,27.865-12.384,43.063c-0.845,13.51,2.533,25.895,9.569,37.152
			C224.911,427.251,225.192,427.533,226.036,428.376z M374.927,288.211c11.54-2.252,21.391-6.192,27.864-16.325
			c1.97-3.096,3.377-6.192,3.377-10.132c0.563-9.851-0.282-19.702-3.096-28.99c-1.126-3.096-2.533-6.192-5.066-8.726
			c-1.688-1.97-3.659-2.814-6.473-3.096c-4.785-0.282-9.288,0.844-14.073,1.97c-0.563,0.281-1.126,1.126-1.689,1.97
			c-0.281,0.844-0.281,1.688-0.281,2.533c-0.563,19.139-0.845,38.278-1.407,57.417C374.645,285.959,374.927,286.804,374.927,288.211
			z M369.579,225.447c-0.844,0-1.407,0-1.689,0c-8.443,2.251-16.606,4.503-25.049,6.755c-1.97,0.563-2.533,1.688-2.533,3.377
			c-1.126,8.443-1.689,16.887-1.689,25.331c0.282,7.599,1.126,14.917,1.689,22.235c0.281,2.252,1.126,3.096,3.377,3.659
			c6.755,1.407,13.51,2.251,20.546,1.97c0.563,0,1.407-0.282,2.251-0.282C365.076,267.665,366.483,246.556,369.579,225.447z
			 M290.49,249.933c3.94,11.54,30.961,32.931,41.937,33.212c-3.377-16.043-2.251-31.804,1.407-48.129
			C318.917,239.52,304.563,244.304,290.49,249.933z M504.96,254.718c0.563,0,1.125,0,1.406,0c0.844-0.282,1.689-0.563,2.533-0.845
			c9.006-3.659,15.199-10.132,19.42-18.576c3.66-7.036,4.504-14.354,1.127-21.954c-0.565-1.407-1.127-3.096-1.971-4.503
			c-0.563-1.126-1.125-1.97-1.69-2.815c-0.844-1.125-1.688-1.407-3.096-1.125c-5.066,0.563-10.414,0.844-15.48,1.125
			c-1.125,0-2.533,0.282-3.939,0.282C502.99,222.632,503.271,238.675,504.96,254.718z M496.515,256.407
			c-0.281-8.725-1.125-16.606-1.125-24.768c0-8.162,0.844-16.325,1.406-24.768c-0.563,0-1.125-0.282-1.688,0
			c-5.348,0.563-10.977,1.125-16.324,1.97c-2.814,0.281-2.814,0.563-3.096,3.096c-0.846,10.414-0.846,20.828-0.283,30.96
			c0.283,2.814,1.127,5.911,1.971,8.725c0.281,0.844,1.408,1.97,2.252,2.252C484.976,255.563,490.605,256.688,496.515,256.407z
			 M469.214,210.529c-5.91,0-22.797,4.503-25.33,6.474c2.814,12.947,16.043,28.146,24.486,31.242
			C465.837,235.579,466.4,223.195,469.214,210.529z M560.97,252.748c8.443,9.288,16.043,18.857,20.264,30.96
			c7.6,0.563,14.918,1.689,20.828,7.318c1.125-3.659,0.844-7.037-0.844-9.569c-1.971-3.096-3.941-6.192-6.756-8.725
			C585.175,263.162,573.353,257.533,560.97,252.748z M266.848,291.308c0.281,0,0.281,0.281,0.563,0.281
			c0.845-0.844,1.689-1.97,2.252-2.814c4.785-5.911,9.569-12.103,14.354-18.013c1.407-1.97,3.096-3.659,4.785-5.629
			c0.563-0.563,0.845-1.97,0.563-2.251c-1.407-2.533-2.814-4.785-4.503-7.6C278.387,267.665,272.195,279.205,266.848,291.308z
			 M438.818,223.477c-0.846-0.563-1.127-1.126-1.408-1.126c-1.971-0.281-24.486,5.348-26.738,6.755
			c0.563,0.844,0.844,1.97,1.125,2.533C421.086,229.105,429.529,226.291,438.818,223.477z M609.662,294.122
			c-1.408,1.126-2.533,2.251-3.66,3.096c0,3.378,1.408,4.786,4.504,5.348c1.971,0.281,3.942,1.688,5.91,2.533
			c0.564,0.281,1.408,0.563,1.971,0.844c0-0.281,0.281-0.281,0.281-0.563C615.853,301.722,613.039,298.063,609.662,294.122z
			 M575.605,353.791h0.281c-1.406-5.629-2.814-11.539-4.221-17.449c-1.689,1.125-2.814,2.25-4.223,3.096
			C570.257,344.22,573.072,349.005,575.605,353.791z"/>
		<path id="XMLID_342_" display="inline" fill="#76AADB" d="M535.357,241.208c2.533,1.689,5.348,3.096,7.6,5.348
			c11.258,9.851,20.828,20.828,28.145,33.775c0.564,0.844,1.127,1.97,1.689,3.378c-1.125,0.281-1.971,0.563-2.814,0.563
			c-4.785,0.844-9.57,1.407-14.354,2.251c-1.689,0.282-3.098,0.845-4.785,1.407c-1.971,0.563-2.533,1.689-2.252,3.377
			c0.281,1.689,1.69,2.252,3.377,2.252c1.689,0,3.377-0.282,5.066-0.563c8.162-1.126,16.605-1.688,24.768-1.126
			c2.533,0,5.066,0.563,7.6,1.126c5.348,1.126,8.443,4.785,9.57,10.132c0.844,4.504,0.563,9.006-0.281,13.51
			c-1.971,13.229-7.037,25.895-12.666,37.996c0,0.283-0.281,0.283-0.844,0.564c-0.283-0.564-0.846-1.127-1.127-1.971
			c-1.971-6.756-3.658-13.229-5.629-19.984c-0.281-0.563-0.281-1.125-0.281-1.688c-1.125-5.066-3.377-5.629-7.6-3.096
			c-9.568,5.629-19.42,10.695-28.99,16.043c-0.281,0.281-0.844,0.281-1.687,0.563c0-1.127-0.283-2.252-0.283-3.096
			c-0.281-7.881-1.406-15.762-3.658-23.643c-0.844-3.096-1.971-6.193-3.377-9.008c-3.096-6.473-8.443-9.287-15.762-8.725
			c-4.223,0.281-8.162,1.408-11.822,3.377c-4.502,2.533-9.287,4.785-13.51,7.881c-9.006,6.193-18.012,12.947-27.02,19.422
			c-0.844,0.563-1.688,1.125-1.969,1.688c-0.283,0.563-0.846,1.971-0.283,2.533c0.283,0.563,1.408,1.408,2.252,1.127
			c1.408,0,2.814-0.564,3.941-1.127c5.066-2.815,10.133-5.629,14.916-8.725c6.193-3.658,11.822-7.881,18.014-11.82
			c4.785-3.098,9.852-5.631,15.48-6.756c7.6-1.69,10.695,0,12.102,7.6c1.408,6.473,2.252,13.229,2.533,19.982
			c0.846,16.607-1.125,32.932-4.221,49.256c-0.281,1.688-0.846,3.096-1.408,5.348c-1.125-1.408-1.969-2.533-2.533-3.377
			c-3.94-6.756-8.162-13.229-11.82-19.984c-1.689-3.096-3.658-4.785-7.6-4.785c-2.814,0-5.629,0.281-8.443,0.846
			c-19.703,3.939-39.685,6.754-59.951,8.725c-13.228,1.406-26.175,1.688-39.403,1.125c-12.384-0.563-24.768-1.688-37.152-4.221
			c-4.504-0.846-8.726-2.533-13.229-3.941c-1.689-0.563-2.814-1.688-3.377-3.658c-4.222-14.072-8.725-27.865-13.229-41.938
			c-0.563-1.406-0.844-3.096-1.407-4.785c-0.282-1.406-1.126-2.533-2.815-2.252c-1.689,0-2.533,1.127-2.533,3.098
			c0.281,4.221,0.844,8.162,1.689,12.383c3.94,19.139,10.414,37.434,17.169,55.447c1.97,5.348,3.94,10.977,5.629,16.324
			c0.563,1.971,0.563,3.941,1.126,6.756c-1.97-0.563-3.377-0.563-4.503-1.127c-3.096-1.969-6.473-3.939-9.288-6.473
			c-5.91-5.066-10.132-11.539-14.354-18.014c-7.6-11.82-13.51-24.768-18.857-37.715c-0.845-2.252-1.97-4.504-2.815-6.756
			c-0.281-0.844-0.844-1.688-1.407-2.25c-0.563-0.564-1.407-1.127-1.97-0.846c-0.563,0.281-1.126,1.127-1.126,1.971
			c0,1.125,0,2.252,0.281,3.377c1.407,4.785,2.814,9.289,4.222,13.791c0.282,1.127,0.563,2.252,1.126,3.66
			c-1.407-0.563-2.251-0.844-2.814-1.127c-4.785-3.377-9.851-6.754-14.354-10.131c-1.126-0.846-1.97-2.815-2.252-4.504
			c-1.689-9.289-3.377-18.857-5.066-28.146c-0.563-4.221-0.844-8.443-1.126-12.664c0-1.126,0.281-2.534,0.844-3.66
			c6.192-8.444,12.384-16.888,18.576-25.331c0-0.282,0.281-0.282,0.844-0.563c1.126,0.844,1.97,1.97,3.096,3.096
			c22.798,21.109,49.536,28.991,79.934,24.486c7.599-1.125,14.917-3.94,20.828-8.725c9.569-7.599,16.043-16.887,16.043-29.553
			c0-5.348-0.563-10.695-0.844-16.325c0-1.407-0.282-2.814-0.282-3.94c9.288-2.252,18.295-4.503,27.583-6.755
			c0.563,0.845,1.127,1.689,1.689,2.533c13.229,21.954,32.648,32.368,57.98,30.679c14.072-0.844,24.486-8.725,32.086-20.265
			c0.563-0.845,1.125-1.689,1.688-2.533C534.513,241.771,534.794,241.771,535.357,241.208z M454.861,258.94
			c-7.881,0.281-15.199,1.689-22.518,4.222c-2.252,0.844-4.502,1.97-6.754,3.377c-2.533,1.407-3.379,3.378-2.252,6.192
			c3.658,10.132,10.133,17.732,19.982,21.954c9.57,4.221,19.422-0.282,22.799-10.414c2.252-6.192,1.689-12.384-0.563-18.576
			C463.304,259.784,461.333,258.658,454.861,258.94z"/>
		<path id="XMLID_341_" display="inline" fill="#76AADB" d="M273.04,259.784c0.844-5.066,1.407-10.132,2.533-15.199
			c5.629-29.271,17.732-56.01,34.337-80.497c19.983-28.99,44.47-53.477,72.334-74.586c7.599-5.629,15.48-10.977,23.08-16.324
			c9.006-6.192,19.419-9.288,29.833-12.103c0.564-0.282,1.408,0,2.252-0.282c-0.281,1.408-0.281,2.533-0.563,3.659
			c-1.971,11.539-4.504,22.798-6.191,34.337c-1.971,13.792-1.971,27.864,1.406,41.656c4.504,19.983,15.762,36.026,30.961,49.255
			c3.377,2.814,6.754,5.348,10.414,8.162c0.844,0.563,1.688,1.407,3.377,2.533c-2.252,0.563-3.658,0.844-4.785,1.126
			c-8.443,2.251-16.887,4.222-25.049,6.473c-3.096,0.845-5.91,2.252-8.727,3.659c-1.406,0.844-2.531,2.252-3.94,3.096
			c-0.844,0.563-1.971,1.407-2.814,1.688c-8.162,1.407-16.325,3.377-24.206,6.755c-0.844-1.125-1.97-1.97-2.814-3.096
			c-3.659-3.659-7.881-5.629-13.229-5.348c-12.384,0.844-24.205,3.096-36.026,6.192c-18.857,4.785-37.715,10.695-55.728,18.294
			c-5.629,2.252-10.695,5.066-16.043,7.881c-1.126,0.563-1.97,1.689-2.533,2.533c-1.97,2.814-3.659,5.629-5.629,8.444
			c-0.563,0.844-1.125,1.688-1.689,2.533C273.603,259.784,273.321,259.784,273.04,259.784z"/>
		<path id="XMLID_340_" display="inline" fill="#FFFFFF" d="M421.086,382.218c23.08-1.689,45.876-4.785,68.394-10.133
			c16.605,39.404,22.234,80.215,17.73,122.996c-27.301,7.037-54.883,9.852-83.311,10.414c-0.281-3.096-0.563-5.91-0.563-8.443
			c-0.563-23.361-1.127-46.723-1.689-70.082c-0.281-14.074-0.562-28.428-0.562-42.5
			C421.086,383.906,421.086,383.343,421.086,382.218z"/>
		<path id="XMLID_339_" display="inline" fill="#FFFFFF" d="M271.069,344.503c2.252,2.25,4.222,4.221,6.192,5.91
			c1.407,1.125,2.814,2.533,4.222,3.377c1.97,1.408,3.659,2.533,5.629,3.941c4.785,3.096,9.569,5.91,15.199,6.754
			c0.844,0,1.689,1.127,2.251,1.971c0.845,1.125,1.126,2.533,1.689,3.658c5.911,12.103,12.666,23.924,22.235,33.494
			c1.126,1.125,1.126,1.971,0.844,3.377c-6.473,19.984-8.162,40.81-7.036,61.92c0.281,8.443,1.407,16.889,4.503,24.77
			c0.281,0.281,0.281,0.844,0.281,1.687c-0.844,0-1.407,0-1.97,0c-21.954-5.348-42.781-13.51-61.639-26.457
			c-7.599-5.348-14.636-11.539-21.109-18.295c-5.066-5.348-7.6-11.539-8.162-18.576c-0.845-10.695,0.844-20.826,3.659-30.959
			c3.94-13.51,9.851-26.176,17.45-38.279c3.377-5.629,7.6-10.695,12.384-15.197C268.817,346.472,269.662,345.628,271.069,344.503z"
			/>
		<path id="XMLID_338_" display="inline" fill="#C64832" d="M416.864,505.496c-1.126,0-2.252,0.281-3.377,0.281
			c-24.768-0.281-49.537-2.252-74.023-7.035c-3.096-0.564-5.066-1.971-5.629-5.066c-0.844-4.223-2.251-8.162-2.533-12.385
			c-2.251-23.361-1.125-46.439,3.377-69.52c0-0.563,0.282-0.844,0.563-1.689c1.126,0.563,1.97,0.846,2.814,1.127
			c2.533,1.125,5.066,2.25,7.6,2.814c6.474,1.406,10.977-2.533,11.258-9.008c0.281-4.221-0.844-8.162-2.252-12.102
			c-1.97-5.348-3.94-10.695-5.911-15.762c-0.563-1.408-0.844-2.533-1.689-4.504c22.235,8.725,44.751,10.133,67.831,10.414
			c0,1.125,0.281,1.971,0.281,2.814c-1.407,24.768-1.97,49.256-1.407,74.023c0.282,14.918,0.563,29.834,3.096,44.752
			C417.145,504.371,416.864,504.652,416.864,505.496z"/>
		<path id="XMLID_337_" display="inline" fill="#C64832" d="M515.937,492.83c4.502-42.5-0.846-83.311-20.266-122.152
			c2.533-1.125,5.066-2.25,7.881-3.377c0.563,1.127,0.844,1.971,1.408,2.814c3.377,7.6,7.598,14.918,12.664,21.672
			c1.408,1.971,3.096,3.66,4.785,5.348c3.377,2.814,6.192,2.533,8.443-1.406c1.127-1.971,2.252-4.223,3.096-6.475
			c2.814-8.443,4.223-17.168,5.066-26.174c0.281-3.098,0.564-6.475,0.846-9.289c7.316-3.377,14.635-6.754,21.953-10.133
			c0.281,0.563,0.844,1.127,1.125,1.689c11.26,23.361,19.141,47.566,23.08,73.178c1.971,12.947,2.533,25.895-0.281,38.842
			c-0.563,2.252-1.408,3.658-3.377,4.785c-19.703,13.229-41.094,23.361-63.891,30.115
			C517.906,492.548,516.781,492.548,515.937,492.83z"/>
		<path id="XMLID_336_" display="inline" fill="#FFFFFF" d="M607.972,308.757c2.252,1.408,3.942,1.971,5.348,3.096
			c9.289,6.193,16.605,14.074,22.518,23.643c3.658,5.91,5.348,12.947,7.035,19.703c3.941,17.168,2.815,33.773-4.502,50.098
			c-1.408,3.379-3.379,6.475-5.631,9.289c-10.131,12.666-21.391,24.486-33.492,35.182c-0.844,0.844-1.689,1.408-2.814,2.252
			c-0.281,0-0.563,0-0.844,0c0-0.563,0-1.125,0-1.689c2.25-16.887,0-33.211-3.941-49.535c-3.096-12.947-7.318-25.613-12.102-37.715
			c-0.283-0.846-0.564-1.69-1.127-2.533c0-0.281,0-0.564,0-0.846c0.844,0.564,1.408,1.127,2.252,1.408
			c1.125,0.281,2.533,1.125,3.658,0.844c3.66-1.688,7.6-2.815,10.133-7.035c7.037-12.666,11.258-26.457,12.947-40.813
			C607.41,312.134,607.691,310.728,607.972,308.757z"/>
		<path id="XMLID_335_" display="inline" fill="#C64832" d="M226.036,428.376c-0.844-1.125-1.126-1.406-1.407-1.689
			c-7.036-11.539-10.132-23.641-9.569-37.152c0.844-15.197,4.785-29.834,12.384-43.063c7.037-12.102,16.325-21.953,29.271-28.145
			c1.97-1.127,3.94-2.252,6.192-3.379c1.688-0.844,2.533-2.25,1.97-4.221c-0.563-1.971,0.281-3.377,1.97-4.504
			c1.125,9.008,2.533,17.732,3.659,26.457c-0.281,0-0.563,0.281-0.844,0.281c-3.94,0-5.066,1.689-3.659,5.348
			c0.282,0.846,0.845,1.69,1.126,2.533c-0.281,0.563-0.563,0.846-0.844,0.846c-8.163,5.348-14.073,12.664-19.139,20.545
			c-9.288,14.918-16.606,30.68-19.702,47.848c-0.844,5.066-0.844,10.133-1.407,15.199
			C226.036,426.125,226.036,426.97,226.036,428.376z"/>
		<path id="XMLID_334_" display="inline" d="M374.927,288.211c0-1.407-0.282-2.252-0.282-3.378
			c0.563-19.139,0.845-38.278,1.408-57.417c0-0.845,0-1.689,0.281-2.533c0.281-0.845,0.844-1.689,1.688-1.97
			c4.504-1.126,9.007-2.533,14.073-1.97c2.533,0.281,4.503,1.126,6.473,3.096c2.252,2.533,3.94,5.348,5.066,8.726
			c3.096,9.569,3.659,19.139,3.096,28.99c-0.282,3.659-1.689,7.037-3.377,10.132C396.317,282.02,386.466,285.959,374.927,288.211z"
			/>
		<path id="XMLID_333_" display="inline" fill="#FFFFFF" d="M369.579,225.447c-3.096,21.391-4.503,42.218-3.096,63.328
			c-0.844,0-1.689,0.281-2.251,0.281c-7.037,0.281-13.792-0.563-20.546-1.97c-2.251-0.281-3.096-1.407-3.377-3.659
			c-0.563-7.318-1.407-14.918-1.689-22.235c-0.281-8.443,0.282-16.887,1.689-25.331c0.281-1.689,0.844-3.096,2.533-3.377
			c8.443-2.251,16.606-4.503,25.049-6.755C368.172,225.447,368.735,225.447,369.579,225.447z"/>
		<path id="XMLID_332_" display="inline" d="M290.49,249.933c14.073-5.629,28.427-10.414,43.344-14.917
			c-3.659,16.325-4.785,32.368-1.407,48.129C321.45,282.864,294.43,261.473,290.49,249.933z"/>
		<path id="XMLID_331_" display="inline" d="M504.96,254.718c-1.971-16.043-1.971-32.086-1.408-48.411
			c1.408-0.282,2.814-0.282,3.939-0.282c5.066-0.281,10.414-0.844,15.48-1.125c1.408,0,2.252,0.281,3.096,1.125
			c0.565,0.845,1.408,1.97,1.69,2.815c0.563,1.407,1.127,3.096,1.971,4.503c3.377,7.6,2.252,14.636-1.127,21.954
			c-4.221,8.725-10.695,14.917-19.42,18.576c-0.844,0.282-1.688,0.563-2.533,0.845C506.085,254.718,505.804,254.718,504.96,254.718z
			"/>
		<path id="XMLID_330_" display="inline" fill="#FFFFFF" d="M496.515,256.407c-5.629,0.282-11.258-0.844-16.887-2.533
			c-0.844-0.281-1.971-1.407-2.252-2.252c-0.844-2.814-1.688-5.911-1.971-8.725c-0.844-10.414-0.844-20.828,0.283-30.96
			c0.281-2.815,0.281-2.815,3.096-3.096c5.348-0.563,10.977-1.126,16.324-1.97c0.563,0,1.125,0,1.688,0
			c-0.563,8.443-1.406,16.606-1.406,24.768C495.39,239.801,495.953,247.682,496.515,256.407z"/>
		<path id="XMLID_329_" display="inline" d="M469.214,210.529c-2.533,12.665-3.096,25.05-0.844,37.715
			c-8.725-3.096-21.672-18.295-24.486-31.242C446.418,215.033,463.023,210.529,469.214,210.529z"/>
		<path id="XMLID_328_" display="inline" fill="#76AADB" d="M560.97,252.748c12.383,4.785,24.205,10.414,33.773,19.702
			c2.533,2.533,4.785,5.629,6.756,8.725c1.688,2.814,1.969,5.911,0.844,9.57c-5.91-5.629-13.229-6.755-20.828-7.318
			C577.013,271.605,569.414,262.036,560.97,252.748z"/>
		<path id="XMLID_327_" display="inline" d="M266.848,291.308c5.066-12.103,11.54-23.924,18.013-36.027
			c1.689,2.815,3.378,5.348,4.503,7.6c0.282,0.563-0.281,1.689-0.563,2.251c-1.407,1.97-3.096,3.659-4.785,5.629
			c-4.785,5.911-9.569,12.103-14.354,18.013c-0.845,0.844-1.689,1.97-2.252,2.814C267.41,291.589,267.129,291.589,266.848,291.308z"
			/>
		<path id="XMLID_326_" display="inline" d="M438.818,223.477c-9.289,2.814-18.014,5.348-27.021,8.162
			c-0.281-0.844-0.844-1.689-1.125-2.533c2.251-1.407,24.767-7.036,26.738-6.755C437.972,222.351,438.253,222.914,438.818,223.477z"
			/>
		<path id="XMLID_325_" display="inline" fill="#C64832" d="M609.662,294.122c3.377,3.94,6.191,7.6,9.287,11.258
			c0,0.281-0.281,0.281-0.281,0.563c-0.563-0.281-1.406-0.563-1.971-0.844c-1.969-0.846-3.94-2.252-5.91-2.533
			c-3.096-0.563-4.502-2.252-4.502-5.348C607.128,296.374,608.253,295.248,609.662,294.122z"/>
		<path id="XMLID_324_" display="inline" fill="#FFFFFF" d="M575.605,353.791c-2.533-4.785-5.066-9.287-7.881-14.354
			c1.408-1.127,2.533-1.971,4.223-3.096c1.406,6.191,2.814,11.82,4.221,17.449C575.886,353.791,575.605,353.791,575.605,353.791z"/>
		<path id="XMLID_301_" display="inline" d="M454.861,258.94c6.473,0,8.443,1.126,10.695,7.036
			c2.252,6.192,2.814,12.384,0.563,18.576c-3.377,9.851-12.947,14.353-22.799,10.414c-9.85-4.222-16.324-12.103-19.982-21.954
			c-1.127-2.815-0.281-4.504,2.252-6.192c2.252-1.407,4.502-2.533,6.754-3.377C439.662,260.628,447.261,258.94,454.861,258.94z
			 M429.529,270.761c4.504,7.599,9.57,13.791,17.732,16.606c5.066,1.688,9.287-0.563,11.258-5.629
			c1.689-4.785,1.127-9.288-0.563-13.792c-1.127-2.815-1.127-2.533-3.941-2.533c-7.316,0.563-14.353,2.251-21.672,4.222
			C431.5,269.917,430.937,270.48,429.529,270.761z"/>
		<path id="XMLID_297_" display="inline" fill="#FFFFFF" d="M429.529,270.761c1.408-0.563,1.971-0.845,2.533-1.126
			c7.037-1.689,14.355-3.659,21.672-4.222c2.814-0.282,3.096-0.282,3.941,2.533c1.688,4.503,2.252,9.007,0.563,13.792
			c-1.69,5.066-6.191,7.318-11.258,5.629C439.099,284.552,434.033,278.36,429.529,270.761z"/>
	</g>
	<g>
		<path fill="#FF0000" d="M465.505,83.07c0.299,0.456,0.584,0.93,0.855,1.42c1.072,1.944,1.919,4.155,2.52,6.661
			c1.794,7.124-0.145,13.383-4.083,18.851c-6.564,9.113-18.683,16.029-28.334,21.091c-35.984,20.304-76.396,40.064-117.488,35.807
			c-19.137-1.913-43.412-11.645-40.29-33.354l0.013-0.963c-6.463,15.338,4.017,41.45,16.39,51.21l-5.391-5.41
			c5.262,5.872,5.897,7.415,22.316,10.807c26.753,5.566,52.851,0.004,78.608-10.16c19.676-7.929,39.574-17.408,57.086-29.459
			c7.132-5.175,20.22-14.886,24.589-24.093l-0.557,1.746c5.887-17.425,0.692-30.473-7.17-45.465"/>
		<g>
			<path d="M463.347,84.332c13.454,22.357-13.684,36.46-29.714,45.485c-19.962,11.238-40.487,21.7-62.419,28.534
				c-19.91,6.204-41.917,9.156-62.438,4.267c-7.463-1.778-14.861-4.851-20.666-9.96c-6.412-5.644-7.018-12.095-6.913-20.075
				c0.04-3.001-3.936-3.163-4.911-0.665c-6.836,17.514,3.086,42.184,17.033,53.643c2.444,2.009,5.855-1.208,3.535-3.535
				c-1.797-1.804-3.594-3.607-5.391-5.41c-2.293-2.301-5.668,1.145-3.535,3.535c2.76,3.093,5.376,5.857,9.233,7.555
				c6.855,3.016,14.933,4.338,22.299,5.254c20.769,2.582,41.302-0.977,61.021-7.55c19.448-6.483,38.469-15.444,56.135-25.807
				c13.517-7.929,30.479-18.453,37.837-32.863c-1.522-0.642-3.046-1.284-4.569-1.926c-0.186,0.582-0.371,1.164-0.557,1.746
				c-0.981,3.081,3.847,4.389,4.822,1.329c5.433-17.043,0.534-32.099-7.423-47.392c-1.488-2.861-5.803-0.332-4.316,2.523
				c7.357,14.141,11.949,27.755,6.917,43.539c1.608,0.443,3.215,0.886,4.822,1.329c0.186-0.582,0.371-1.164,0.557-1.746
				c0.858-2.691-3.277-4.456-4.569-1.926c-6.764,13.246-22.157,22.643-34.466,30.126c-16.619,10.105-34.646,18.357-52.913,24.988
				c-18.513,6.721-37.991,10.622-57.731,9.221c-8.125-0.577-16.522-2.192-24.264-4.777c-4.052-1.353-6.537-4.064-9.299-7.159
				c-1.178,1.178-2.357,2.357-3.535,3.535c1.797,1.804,3.594,3.607,5.391,5.41c1.178-1.178,2.357-2.357,3.535-3.535
				c-12.708-10.441-21.993-32.775-15.747-48.778c-1.637-0.222-3.274-0.443-4.911-0.665c-0.109,8.257,0.542,14.55,6.005,21.175
				c5.358,6.497,13.762,10.216,21.602,12.68c22.121,6.953,47.017,3.274,68.74-3.265c24.894-7.494,47.753-20.242,70.397-32.731
				c9.435-5.204,18.722-11.438,24.887-20.453c5.901-8.628,5.065-19.491-0.164-28.18C466.004,79.05,461.68,81.562,463.347,84.332
				L463.347,84.332z"/>
		</g>
	</g>
</g>
</svg>
