<?xml version="1.0" encoding="utf-8"?>
<!-- Generator: Adobe Illustrator 19.0.0, SVG Export Plug-In . SVG Version: 6.00 Build 0)  -->
<svg version="1.1" id="Capa_1" xmlns="http://www.w3.org/2000/svg" xmlns:xlink="http://www.w3.org/1999/xlink" x="0px" y="0px"
	 viewBox="0 0 623.6 170.1" style="enable-background:new 0 0 623.6 170.1;" xml:space="preserve">
<style type="text/css">
	.st0{fill:#FFFFFF;}
	.st1{fill:#80207E;}
	.st2{fill:#C20B19;}
	.st3{fill:#A2C037;}
	.st4{fill:#009DE0;}
	.st5{fill:#DC911B;}
</style>
<ellipse class="st0" cx="164.6" cy="88.8" rx="142.5" ry="67.8"/>
<g>
	<path class="st1" d="M355.5,112.6c-0.5,0-2.3,0.2-2.3-0.7c0-1.7,4.6-7.7,4.6-14.5c0-2.7-2.6-3.7-5.3-3.7c-5.5,0-14.2,1-14.2,7.8
		c0,4.7,3.9,9.8,3.9,10.7c0,0.4-0.4,0.4-1.1,0.4h-8.6c-3.1,0-3.9-5.4-3.9-13.2c0-25.7,17.8-37.6,20.5-37.6c2,0,17.5,8.6,17.5,36.4
		c0,16-2.6,14.4-4.4,14.4H355.5z M339.7,85.9c0,0.7,0.4,1.1,1.1,1.1c1.1,0,6.9-1.6,12.2-1.6c2.1,0,3.1-0.3,3.1-2
		c0-3.7-4.4-11.5-6.7-11.5C346.1,72,339.7,81.6,339.7,85.9z"/>
	<path class="st1" d="M389.7,112.6c-0.7,0-1.9,0.1-1.9-0.8c0-0.7,1.1-5.5,1.1-9.7c0-1.1,0.2-2.2-0.4-2.2c-0.4,0-1.2,1.1-2.2,2.2
		c-1,1.1-2.1,2.6-3.2,2.6c-4.6,0-13.8-9.4-13.8-18.8c0-6.4,3.4-12.7,16.8-12.7c10.2,0,11.2-0.9,11.2,11.9v17.6
		c0,10.3-0.8,9.8-2.7,9.8H389.7z M389.2,92.5c0-11.9-2.3-12.2-5.5-12.2c-3.8,0-7,2.7-7,6.6c0,5,4.3,10.1,9.7,10.1
		C389.1,97,389.2,94.6,389.2,92.5z"/>
	<path class="st1" d="M428.1,74.2c2.5,0,2.6,12.6,2.6,18.3c0,22-1.6,21-5.9,21c-6.3,0-1.5-3.4-4.9-3.4c-0.5,0-1.9,1.3-3,2
		c-1.1,0.7-2.5,1.4-4.4,1.4c-5,0-9.6-3.1-9.6-20.3c0-1,0.4-19,2.9-19h5.5c0.8,0,2.4-0.3,2.4,0.9c0,0.9-2.8,6.9-2.8,18.2
		c0,3.4-0.1,12.5,5.1,12.5c2,0,6.5-0.6,6.5-13.5c0-7.2-2.1-16.4-2.1-17.4c0-0.8,1.4-0.7,2-0.7H428.1z"/>
	<path class="st1" d="M449.6,87.6c1.7-0.3,3.1-0.6,3.1-2.6c0-3.1-3.2-4.7-5.8-4.7c-6.1,0-5.2,5.2-6.5,5.2c-1.9,0-4-2.3-4-4.9
		c0-4.4,5-7.3,10.5-7.3c1.9,0,10.1-0.1,13.2,8.3c1.3,3.5,1.4,21.2,1.4,23.3c0,2.6,0.5,4.2,0.5,6.2c0,1.3-5.6,1.4-11,1.4
		c-14.5,0-15.5-7.4-15.5-11C435.4,94,442.8,88.8,449.6,87.6z M453.3,98.1c0-2.1,0.4-4.6-2.5-4.6c-3.5,0-7.3,3-7.3,6.7
		c0,3.4,2.9,5.3,6.1,5.3c3.5,0,3.7-1.8,3.7-4.7V98.1z"/>
	<path class="st1" d="M490.2,62.7c9.8,0,11.9,7.1,11.9,10.7c0,16.1-23.5,18.4-23.5,26c0,5,2.1,12.4,2.1,12.7c0,0.7-1.4,0.5-1.8,0.5
		h-8c-1.5,0-3.3,1.1-3.3-21.4c0-29.6,3.1-28.6,4.1-28.6H490.2z M492.3,75.3c0-4.1-3.6-5.5-7.2-5.5c-4.3,0-7.9,0.7-7.8,14.5
		c0,1.4,0.1,2.8,1.9,2.8C482.3,87,492.3,79.6,492.3,75.3z"/>
	<path class="st1" d="M518.2,87.6c1.7-0.3,3.1-0.6,3.1-2.6c0-3.1-3.2-4.7-5.8-4.7c-6.1,0-5.2,5.2-6.5,5.2c-1.9,0-4-2.3-4-4.9
		c0-4.4,5-7.3,10.5-7.3c1.9,0,10.1-0.1,13.2,8.3c1.3,3.5,1.4,21.2,1.4,23.3c0,2.6,0.5,4.2,0.5,6.2c0,1.3-5.6,1.4-11,1.4
		c-14.5,0-15.5-7.4-15.5-11C504,94,511.5,88.8,518.2,87.6z M521.9,98.1c0-2.1,0.4-4.6-2.5-4.6c-3.5,0-7.3,3-7.3,6.7
		c0,3.4,2.9,5.3,6.1,5.3c3.5,0,3.7-1.8,3.7-4.7V98.1z"/>
	<path class="st1" d="M539.4,112.6c-2.2,0-3.3,1.9-3.3-18c0-16.6-0.5-20.3,1.2-20.4h5c0.9,0,2-0.3,2,0.8c0.1,0.9,0.2,2,1.4,2
		c0.9,0,1.9-1,3.2-1.9c1.3-0.9,2.7-1.9,4.3-1.9c3.1,0,5.6,2.6,5.6,5.9c0,4.2-3.4,6.7-5.2,6.7c-0.7,0,0.1-4-4-4
		c-5,0-5.4,8.1-5.4,11.7c0,11.9,2,17,2,18.1c-0.1,1-1.4,1-2,1H539.4z"/>
	<path class="st1" d="M563.5,112.6c-2.1,0-1.9-20.1-1.9-21.5c0-2.8-0.2-29.7,2.5-29.7h6.4c0.8,0,1.4,0.4,1.4,1.3
		c0,1.2-2.2,6.7-2.2,22.3c0,2.1,0,4.8,0.8,4.8c2,0,7.5-7.9,7.5-14.4c0-1.5,0.6-1.3,1.9-1.3h3.7c1.2,0,2.6-0.4,2.6,1.3
		c0,8.3-6.5,13.7-6.5,14.9c0,1.3,2.5,2.2,4.9,5.3c2.5,3.1,4.9,8.2,4.9,15.3c0,1.8-1.1,1.6-2.6,1.6h-4.9c-1.6,0-2.2,0.1-2.2-1.9
		c-0.1-8.3-4-14.9-5.8-14.9c-0.8,0-3.5,0.9-3.5,3.8c0,7.3,1.5,11.2,1.5,12.3c0,0.7-0.6,0.7-1.5,0.7H563.5z"/>
</g>
<g>
	<g>
		<path class="st2" d="M112.4,107.1c-3.6,3.9-14.1,2-18.7,2c-6.1,0-14.3,1.3-20.2-1C63,104,63.7,93.6,63.7,84.4
			c0-10.7,5.7-19.6,17.2-19.9c8.7-0.3,22.7-1.4,22.7,11.1c0,4.8,7.5,4.8,7.5,0c0-6.5-3.6-12.8-9.2-16.1C97,56.6,91.6,57,86.1,57
			c-5.4,0-10.6,0-15.7,2.3c-6.5,3-11.6,8.9-13.4,15.9c-1.3,4.8-0.8,10-0.8,14.9c0,5.5,0.3,10.8,3.3,15.6
			c6.3,10.2,16.7,10.9,27.4,10.9c5.8,0,11.5,0,17.3,0c5,0,9.8-0.3,13.5-4.2C121,108.9,115.7,103.5,112.4,107.1L112.4,107.1z"/>
	</g>
</g>
<g>
	<g>
		<path class="st3" d="M145.6,108.8c-4.2,0.3-8.9,1.1-8.9-4c0-3.6,0-7.2,0-10.8c0-8.5,0-16.9,0-25.4c0-3.1-0.2-6-2.4-8.4
			c-3.1-3.5-9-4.2-13.4-2.8c-8.6,2.8-6.6,13.7-6.6,20.7c0,4.8,0,9.6,0,14.4c0,5.1,0.6,10.9-2.5,15.2c-2.8,4,3.7,7.7,6.5,3.8
			c4.7-6.7,3.5-16.3,3.5-24.1c0-4.5,0-9,0-13.5c0-2-0.7-5.5,0-7.4c1.5-4.1,6.8-2.1,7.4,1.1c0.5,2.8,0,6.2,0,9.1c0,8.4,0,16.8,0,25.2
			c0,2.4-0.3,5.1,0.3,7.4c1.9,7.7,9.8,7.5,16.1,7C150.4,116,150.4,108.5,145.6,108.8L145.6,108.8z"/>
	</g>
</g>
<g>
	<g>
		<path class="st4" d="M188.5,108.4c-4.1-0.4-9.2-1.3-11.4-5.2c-1.3-2.3-1.2-4.8-1.2-7.3c0-6.5,0-13,0-19.5c0-4.1-1.9-11.3,3.6-11.9
			c2.5-0.3,6.7-0.7,9,0c4.4,1.4,2,3.7-0.6,4.2c-5.3,1-11.7,0-17,0c-6.5,0-13,0-19.5,0c-1.2,0-3.2,0.4-4.4,0c-3.1-1-2.5-3.3-0.1-4.2
			c1.1-0.4,3.2,0,4.3,0c2.5,0,6.3-1,7.4,2.2c0.5,1.5,0,4,0,5.6c0,7.4,0,14.8,0,22.2c0,2.6,0.3,5.5-0.9,8c-2.1,4.6-7.6,5.9-12.2,6.4
			c-4.7,0.5-4.8,8,0,7.5c11.2-1.2,20.3-6.7,20.5-19c0.2-8.6,0-17.2,0-25.9c0-3.1,0.4-6.6-1.1-9.4c-2.7-5.1-7.8-5.1-12.8-5.1
			c-4.8,0-9.9-0.4-13.1,4c-3.4,4.8-1.6,11.8,3.8,14.2c2.6,1.2,5.4,0.9,8.2,0.9c4.5,0,8.9,0,13.4,0c8,0,16.1,0.4,24.1,0
			c12.6-0.6,13-18.5,0.3-19.2c-8.3-0.5-19.9-1.2-20.4,9.9c-0.5,9.4,0,18.9,0,28.3c0,4.2,0.2,8.4,2.5,12.2c3.8,6.1,10.9,7.8,17.6,8.4
			C193.3,116.3,193.3,108.8,188.5,108.4L188.5,108.4z"/>
	</g>
</g>
<g>
	<g>
		<path class="st5" d="M271.9,110.1c-5.5,0.6-11.6,0.7-17.1-0.2c-3.7-0.6-4.8-2.3-4.9-5.7c-0.3-6-0.1-12.1-0.2-18.1
			c-0.1-10.4,2.3-29.3-13.5-29.1c-8.8,0.1-9.6,8.3-9.6,15.1c0,0.9,0.3,2.6,0,3.4c-1.1,3.2-3.6,2.5-4.5,0c-0.8-2.3,0.1-6.1,0-8.6
			c-0.4-8.6-9.2-12.3-16.3-8.1c-5.8,3.4-6.6,9.3-6.6,15.4c0,7.2,0,14.4,0,21.6c0,2.2,0,4.4,0,6.6c0,1.8,0.5,4.9-1.2,6.1
			c-1.9,1.3-7.5,0.1-9.5,0c-4.8-0.3-4.8,7.2,0,7.5c8.5,0.5,17.2,0.7,18.1-9.8c0.4-5.3,0.1-10.8,0.1-16.1c0-6.1-0.2-12.2,0-18.3
			c0.1-2.8,0.8-6.4,4.3-6.9c4.5-0.6,3.6,4.4,3.6,7.4c0,3-0.2,5.9,1.5,8.6c2.2,3.6,6.7,5.3,10.7,4.3c8.8-2.2,6.4-10.4,7.3-16.9
			c0.7-5.4,6.5-3.6,7.7,0.7c0.4,1.5,0.2,3.2,0.2,4.8c0.1,6.5,0.1,13,0.2,19.4c0.1,4.8-0.7,10.4,0.4,15.2c2.6,12,20,10.5,29.3,9.5
			C276.7,117.1,276.7,109.6,271.9,110.1L271.9,110.1z"/>
	</g>
</g>
<g>
	<g>
		<path class="st1" d="M300.1,86.8c0,15.3-16.4,21.7-29.2,23.5c-4.8,0.7-2.7,7.9,2,7.2c16.4-2.3,34.7-12,34.7-30.7
			C307.6,82,300.1,81.9,300.1,86.8L300.1,86.8z"/>
	</g>
</g>
<g>
	<g>
		<path class="st1" d="M280.5,119.1c-16.7,12.4-36.7,19.6-56.8,24.2c-25,5.8-50.9,7.4-76.5,6c-23.1-1.3-46.3-5.3-68-13.4
			c-15.9-5.9-32.9-14.5-43.5-28.2c-7.9-10.2-10.4-23-4.4-34.8c7.2-14.4,22.2-23.7,36.3-30.4c19.8-9.3,41.8-14.4,63.4-16.9
			c25.4-2.9,51.4-2.6,76.6,1.4c22.9,3.7,46.3,10.2,66.1,22.6c13,8.2,26.3,20.6,26.5,37.1c0.1,4.8,7.6,4.8,7.5,0
			c-0.2-15.6-10.1-28.5-21.9-37.7c-16.2-12.6-36.2-20.2-56-25.1c-26-6.5-53.2-8.6-79.9-7.4c-24.6,1.2-49.5,5.2-72.6,13.8
			c-26.9,10-67.4,34.1-54.6,69.1c5.8,15.7,20.1,26.8,34.3,34.5c19.9,10.8,42.4,16.9,64.8,20.2c30.1,4.4,61.1,4.2,91.1-1
			c25-4.3,50.9-12.2,71.6-27.6C288.1,122.7,284.4,116.2,280.5,119.1L280.5,119.1z"/>
	</g>
</g>
<g>
</g>
<g>
</g>
<g>
</g>
<g>
</g>
<g>
</g>
<g>
</g>
</svg>
