<svg version="1.1" id="Capa_1" xmlns="http://www.w3.org/2000/svg" width="20" height="20" x="0" y="0" viewBox="0 0 591.88 532.59" xml:space="preserve"><path class="st0" d="M289.06 13.06v109.06h11.65V13.06s-1.41-7.76-5.82-5.65-5.83 3.71-5.83 5.65zM300.71 28.94s8.12 4.06 19.06 6.18 15.88 1.94 20.82 2.12c4.94.18 28.59 1.24 29.12 1.06.53-.18 4.06 2.47 3.35 3.71-.71 1.24-4.41 11.65-5.47 13.76-1.06 2.12-.18 6.53 1.94 7.41 2.12.88 8.65 8.65 8.65 8.65s.88 2.29 0 4.06c-.88 1.76-4.24 2.12-5.82 2.82-1.59.71-10.94 1.24-14.65 1.41-3.71.18-28.94 0-28.94 0s-14.82-2.29-16.94-3.88c-2.12-1.59-8.29-4.06-9.35-4.76-1.06-.71-1.76-1.41-1.76-1.41M289.06 122.12l-52.76 52.24s-.71 5.47 0 6c.71.53 35.12 4.41 35.12 4.41s46.59-.71 49.76-.88c3.18-.18 33-4.41 33-4.41v-4.24l-53.47-53.12"/><path class="st0" d="M236.29 180.35L92.47 289.41h88.47l90.47-104.65M277.88 184.67l-29.17 104.74h93.17L311.53 184.1M321.18 183.88l88 105.53 90.11 1.41-145.11-111.35"/><path class="st0" d="M92.47 289.41l408.47 1.41 4.47 10.12H84.94z"/><path class="st0" d="M86.12 300.94l-11.29 25.65s-1.65 9.41-.94 11.29c.71 1.88 2.35 6.35 4.47 8 2.12 1.65 3.53 4 3.53 4l.24 8.94s-6.12 35.06-9.88 48.24c-3.76 13.18-16.71 48.71-16.71 48.71L34.35 500l-9.65 15.76h72.47s14.59-22.82 15.76-25.18 8.94-15.76 11.06-20 16-36.24 17.88-41.41c1.88-5.18 14.59-44.94 14.59-44.94l8.47-30.82 1.18-16.47-5.65-7.53s-4.94-1.65-6.59-1.18-4.24.71-5.18 2.59-11.06 8.47-11.06 8.47-9.65 4-13.41 4.47c-3.76.47-7.76 2.82-8.71 2.59s-12.47-.94-13.65-2.12c-1.18-1.18-13.65-4.47-15.06-6.12-1.41-1.65-4.24-2.35-3.53-5.41.71-3.06 14.12-31.76 14.12-31.76"/><path class="st0" d="M166.12 336.94l9.41 9.18s5.65 5.18 10.35 6.12c4.71.94 6.59 1.88 9.18 1.88s14.82-1.41 15.76-2.35c.94-.94 22.12-15.29 24.71-16.47 2.59-1.18 3.53-2.82 4.94-2.35 1.41.47 5.18-.24 6.82 2.35 1.65 2.59 2.82 4.94 2.82 4.94l-28.24 18.82s-13.18 5.18-15.06 5.41-20.47 0-20.47 0-21.51-9.69-21.41-11.06M221.88 359.06v4s-11.29 30.82-15.53 40.71c-4.24 9.88-16.24 38.82-18.35 41.65-2.12 2.82-36.24 70.12-41.65 70.35-5.41.24 80.94 0 80.94 0s67.76-100.71 68-110.35.5-43.53.5-43.53-17.91 0-23.79-2.82c-5.88-2.82-19.06-13.88-21.88-18.82"/><path class="st0" d="M367.76 359.57l1.66 3.49 20.94 53.65s12.71 29.88 22.59 49.18c9.88 19.29 32.94 49.99 32.94 49.99h-82.82s-19.06-27.16-22.35-30.93c-3.29-3.76-32.47-53.88-32.47-53.88l-12.94-25.65 71.65-45.32 2-1.27-.96-13.89-13.88-12.08s-9.18-.62-9.41 1.73-14.59 18.59-22.12 22.59c-7.53 4-26.79 4.71-26.79 4.71l-.5 43.53"/><path class="st0" d="M368 344.94l14.59 7.29s8.24 2.59 11.06 2.35c2.82-.24 14.59-2.34 17.88-4.82 3.29-2.48 15.53-15.89 17.18-18.01 1.65-2.12 3.53-4 6.59-4.24 3.06-.24 6.12 2.12 6.12 2.12l-15.76 23.29s-17.65 11.74-22.82 11.63c-5.18-.1-18.82 0-18.82 0s-14.96-4.33-15.06-5.75"/><path class="st0" d="M441.41 329.65s8.71 7.06 16 10.59c7.29 3.53 11.53 5.5 18.35 5.81 6.82.31 11.76-.16 17.88-2.04s10.12-4.71 11.76-8.71 0-7.78 0-7.78l-12.71-26.57h12.71l10.82 24.47v11.76s-.47 4.24-3.29 7.06c-2.82 2.82-4.47 5.41-4.47 5.41l-76.71 24.94-6.12-21.65M431.76 374.59s18.94 60.94 26 75.76c7.06 14.82 35.29 65.52 35.29 65.52h73.41s-24-39.05-26.12-46.46c-2.1-7.41-18.34-49.41-19.4-52.94s-8.82-31.06-9.18-34.94c-.35-3.88-3.29-31.88-3.29-31.88"/><path class="st0" d="M8.82 515.87h574.24s3.88.84 3.18 5.42c-.71 4.59-3.88 6-3.88 6H7.41s-3.18-4.37-2.82-5.71c.35-1.34 1.59-4.43 4.23-5.71z"/></svg>
                    