<svg xmlns="http://www.w3.org/2000/svg" width="20" height="20" viewBox="0 0 497.65 362.82"><path d="M4.59 177.18l6 16.94h11.65s2.82.71 5.65 2.82 5.29 4.59 5.65 6.35c.35 1.76 3.18 9.53 2.12 12.35-1.06 2.82-1.06 5.65-4.24 8.47s-6 3.88-6 3.88l8.94 23.06h11.29s4.71.71 7.53 4.24c2.82 3.53 5.18 7.76 5.18 7.76s1.65 8.24 0 11.76c-1.65 3.53-7.29 9.18-8.24 9.88-.94.71 7.53 22.35 7.53 22.35l11.53 1.18s4.47.94 7.06 3.29 5.41 9.41 5.41 9.41 2.35 8.94 0 11.06c-2.35 2.12-2.59 8.47-6.35 9.65-3.76 1.18-2.82 1.18-2.82 1.18l7.06 16 35.53-13.65L39.88 162 4.59 177.18z" stroke="#000"/><path d="M416.82 6.71l7.06 16.59-8.47 8.12s-2.47 9.18-1.76 11.29c.71 2.12 3.05 7.76 5.05 9.88 2 2.12 7.65 5.29 9.77 5.65s9.18-.88 9.18-.88l9.88 22.59s-8.82 6.53-9.35 10.41c-.53 3.88-.53 10.41-.53 10.41s-.35 3.71 2.12 6.35c2.47 2.65 5.29 6 8.82 6.88 3.53.88 13.06 0 13.06 0l9 22.24s-9.71 8.47-9.53 14.12c.18 5.65.18 7.94 1.76 11.47 1.59 3.53 6.53 8.47 9.71 9.53 3.18 1.06 11.82 0 11.82 0l7.76 17.12-34.59 13.76-76.76-182.3 36-13.23z"/><path d="M380.82 19.94L39.88 162s7.96 19.41 7.86 19.16c-.1-.24 341.36-141.55 341.36-141.55M107.79 327.47l342.65-142.21 7.15 16.98-342.53 142.94M87.53 189.53L367.06 74.12l3.88 10.23L91.76 200.12zM126.35 282l278.83-115.41 4.23 9.17-279.17 115.42zM122.82 210.35l1.42 18.53-16.45 6.65 17.33 4.82 1.23 17.65 9.53-15 18.36 4.06-12.71-14.12 9.88-15.18-16.59 6.18zM356.47 113.29l1.41 18.53-16.41 7.24 17.47 4.06 1.06 18.17 9.71-15.35 17.64 4.59-12.35-15 10.94-15.18-17.47 6.89z"/><text transform="rotate(-21.894 682.198 -353.681)" font-size="49.469" font-family="BerlinSansFBDemi-Bold">TICKET</text></svg>