<svg version="1.1" id="Capa_1" xmlns="http://www.w3.org/2000/svg" width="20" height="20" x="0" y="0" viewBox="0 0 627.53 609.18" xml:space="preserve"><style>.st0{fill:none;stroke:#000;stroke-width:16}</style><circle class="st0" cx="210.99" cy="164.53" r="59.25"/><path class="st0" d="M185.4 410.47L23.65 502.59s-4.59 2.47-12.35-3.88 3.94-16.84 3.94-16.84l170.2-97.4M185.44 462.71L55.76 539.29s-8.82-1.41-13.06-2.47c-4.24-1.06-2.12-11.29-2.12-11.29l144.37-88.93M236.24 415.76l270.94 129.18s10.59 9.18 7.06 15.53c-3.53 6.35-13.06 3.88-13.06 3.88L236.24 436.6M236.24 466.59l245.53 118.59s3.53 6.71-1.76 10.59-12 3.88-12 3.88L223.95 479.07"/><path class="st0" d="M241.56 418.3l160.79-91.13 153.18 71.65s13.41-.35 14.12-4.24c.71-3.88 4.24-12-1.41-15.53-5.65-3.53-163.76-78.53-163.76-78.53l-168.24 95.82M254.29 336.8l166.42-95.39-66-34.24"/><path class="st0" d="M359.66 188.83l94.57 44.82s4.24 5.29 2.82 8.47c-1.41 3.18-6 7.08-6 7.08L239.64 372.83M360.2 139.07l127.21 62.46 75.88-44.12s11.65 0 13.06 2.47c1.41 2.47 4.59 10.59 2.47 13.06-2.12 2.47-80.47 49.06-80.47 49.06s-4.59 3.53-8.12 3.88-6.71-.68-9.53-2.1c-2.82-1.43-119.29-57.54-119.29-57.54M608.12 182.51l-162 95.96s-4.59 5.29-2.82 8.82c1.76 3.53 6.35 7.06 6.35 7.06l143.29 70.24s8.12-2.47 7.76-7.06c-.35-4.59 1.41-7.76-3.18-12.35s-127.66-59.29-127.66-59.29l143.19-86.47s5.65-8.47 2.82-12.35c-2.81-3.89-5.74-5.75-7.75-4.56z"/><path class="st0" d="M210.99 14.82s-47.22 0-71.93 18.35S100.9 66.35 97.04 72s-21.51 36-24.33 46.59c-2.82 10.59-8.47 34-6.35 45.94 2.12 11.94.71 35.24 10.59 55s20.47 33.18 30.35 43.06c9.88 9.88 40.94 38.82 48 49.41s29.23 40.24 30.14 52.59c.91 12.35 0 106.24 0 106.24s14.89 13.41 25.55 12.71c10.66-.71 28.29-12.71 28.65-22.59.36-9.88 0-92.47 0-92.47s11.66-51.94 35.66-70.44 47.29-31.91 52.94-41.09c5.65-9.18 28.64-31.06 31.97-53.65 3.32-22.59 4.44-64.94 0-72.71-4.44-7.76-10.79-43.06-31.97-62.82-21.18-19.76-39.76-39.53-58-45.88s-59.25-7.07-59.25-7.07z"/></svg>
                    