<?xml version="1.0" encoding="utf-8"?>
<!-- Generator: Adobe Illustrator 19.0.0, SVG Export Plug-In . SVG Version: 6.00 Build 0)  -->
<svg version="1.1" xmlns="http://www.w3.org/2000/svg" xmlns:xlink="http://www.w3.org/1999/xlink" x="0px" y="0px"
	 viewBox="0 0 214.5 211.5" style="enable-background:new 0 0 214.5 211.5;" xml:space="preserve">
<style type="text/css">
	.st0{display:none;}
	.st1{display:inline;}
	.st2{fill:#76AADB;}
	.st3{fill:#C64832;}
	.st4{fill:#FFFFFF;}
	.st5{fill:#B2D7F2;}
</style>
<g id="Capa_1" class="st0">
	<g id="XMLID_1_" class="st1">
		<g id="XMLID_295_">
			<path id="XMLID_345_" d="M106.4,166.3c-0.5,0-1,0-1.4,0c-3.7,0-7.4,0-11.1,0c-1.8,0-2.2,0.2-2.3,2.1c-0.3,3.7-0.9,7.3-1.7,10.9
				c-0.4,2.1-1,4.2-2,6.2c-0.8,1.5-1.4,1.7-3.1,1.2c-2.5-0.8-4.6-2.2-6.5-3.8c-5.4-4.6-10.1-9.8-13.9-15.8c-0.7-1.1-1.1-2.4-1.5-3.6
				c-0.2-0.7-0.6-1.1-1.4-1.4c-5.4-1.4-10.7-3.4-15.6-6.1c-0.6-0.4-1.3-0.7-2-1c-4.9-2.3-8.2-6-9.9-11.1c-3.2-9.6-3.1-19.2-0.2-28.9
				c1-3.2,2.5-6.2,4.6-8.9c2.5-3.2,5.7-5.4,9.6-6.5c0.5-0.2,1-0.2,1.6-0.3c1-0.1,1-0.1,1.2-1.1c0.3-1.3,0.5-2.6,0.9-3.9
				c0.4-1.4,0.9-2.8,1.3-4.2c0.2-0.5,0.3-1,0.1-1.5c-1.4-3.7-1.5-7.6-1.3-11.5c0-0.5,0-1.1,0-1.6c0-1.2,0.2-1.6,1.4-1.8
				c1.9-0.4,3.9-0.8,5.8-1.1c0.9-0.1,1.3-0.4,1.6-1.3c4.6-12.3,11.5-23,21.2-32c6.7-6.2,14.4-10.8,22.7-14.5c4.6-2.1,9.4-3.9,14.4-5
				c1.3-0.3,2.7-0.3,4-0.4c0.7,0,1.2,0.4,1.4,1c0.2,0.8,0.4,1.6,0.3,2.4c-0.1,1.8-0.2,3.7-0.4,5.5c-0.5,4.7-0.5,9.4,0.2,14.1
				c0.9,5.9,2.5,11.7,4.7,17.3c0.7,1.7,1.4,3.4,2.1,5.1c0.4,0.9,0.8,1.7,1.2,2.5c1.6,2.9,1.6,2.9,4.8,3.3c1,0.1,2,0.3,3,0.5
				c2.2,0.3,3.2,1.8,3.6,3.8c0.4,2.6,0.5,5.2-0.3,7.8c-0.4,1.2-0.2,2.1,0.3,3.1c1.9,3.5,3.7,7,5.5,10.5c0.2,0.4,0.4,0.8,1,1
				c4.5,1.3,8.3,3.9,11.6,7.1c5.5,5.3,8.5,11.9,9.3,19.5c0.6,5.4-0.2,10.6-2,15.7c-1,2.9-2.5,5.6-4.8,7.8c-1,1-2,2-3,3
				c-1.2,1.2-2.5,2.2-4.1,2.9c-1.6,0.7-3.2,1.3-4.7,2.2c-4.4,2.5-9.3,3.8-14.1,5.4c-0.8,0.3-1.3,0.6-1.6,1.4
				c-0.2,0.7-0.6,1.3-0.9,1.9c-1.1,3-3,5.5-5.1,7.9c-3.8,4.2-7.9,8-12.7,11.1c-1.6,1.1-3.4,1.9-5.2,2.7c-1.7,0.8-3.3,0-3.9-1.7
				c-1.3-3.6-2-7.3-2.4-11.1c-0.2-1.9-0.2-3.8-0.3-5.8C106.5,167,106.4,166.7,106.4,166.3z M54.8,91.5c-0.1,0.2-0.2,0.3-0.2,0.4
				c-0.1,0.6-0.3,1.2-0.4,1.8c-1.1,5.5-1.9,11-2.1,16.5c-0.2,4.5-0.2,8.9,0.7,13.3c0.5,2.4,1.2,4.8,2.4,6.9c0.4,0.7,1,1.4,1.6,1.9
				c0.5,0.5,1,0.4,1.5-0.1c0.3-0.4,0.6-0.8,0.8-1.2c0.3-0.9,0.6-1.8,0.7-2.7c0.5-3,0.5-6,0.3-9.1c-0.1-2.7-0.3-5.5-0.4-8.2
				c0-0.5,0.1-1.1,0.2-1.6c0.1-0.4,0.4-0.7,0.9-0.7c0.5,0,0.8,0.3,0.9,0.7c0.1,0.3,0.1,0.6,0.2,1c0,1.1,0.6,1.8,1.6,2.2
				c1.1,0.5,2.2,1,3.3,1.4c5.4,1.9,11,2.7,16.6,3.1c11.4,0.8,22.8,0.3,34-1.7c8.1-1.4,15.9-3.7,23.4-7.3c0.8-0.4,1.7-0.8,2.1-1.7
				c0.3-0.6,1-0.6,1.3,0.1c0.2,0.4,0.3,0.9,0.3,1.3c0.2,3.7,0.4,7.4,0.7,11c0.3,3.7,0.6,7.4,1.5,11.1c0.2,0.6,0.4,1.3,0.6,1.9
				c0.6,1.2,1.3,1.2,2.1,0.2c0.3-0.4,0.6-0.9,0.8-1.3c2-4.6,3-9.4,2.2-14.5c-1.2-7-3.3-13.7-6.4-20.1c-1.3-2.7-2.6-5.3-3.9-7.9
				c-0.1-0.2-0.3-0.4-0.4-0.6c-0.1,0-0.2,0-0.2,0c-0.1,0.2-0.3,0.3-0.4,0.5c-2.2,3.5-5.3,5.7-9.3,6.8c-4,1.1-8,1.5-12.2,0.8
				c-6.8-1.1-11.9-4.7-14.9-10.9c-0.4-0.9-0.8-1.9-1.2-2.8c-4.3,0.6-8.5,0.5-12.9,0.5c-0.1,0.5-0.2,0.9-0.3,1.3
				c-0.5,2.1-1.1,4.1-2.3,5.9c-2,3.2-5,5.2-8.5,6.2c-4.4,1.2-8.8,1.4-13.3,0.7c-4.2-0.6-8.1-2.1-11.2-5.1
				C55.1,91.6,55,91.6,54.8,91.5z M103,76.6c0.1-0.6,0.1-1.2,0.2-1.8c0.1-0.6,0.3-1.2,0.6-1.7c0.9-1.3,2.1-2.1,3.8-2.1
				c0.4,0,0.9-0.1,1.3-0.1c6.8-0.6,13.6-0.9,20.4-0.8c0.4,0,0.8,0,1.3-0.1c-0.2-0.3-0.3-0.6-0.4-0.8c-1-1.9-2.2-3.8-3-5.7
				c-1.2-3-2.4-6-3.3-9.1c-1.9-6.1-3.2-12.4-3.1-18.8c0.1-2.7,0.4-5.5,0.6-8.2c0.2-1.8,0.5-3.6,0.8-5.3c0.1-0.5,0.3-1.1-0.3-1.5
				c-1.7,0.6-3.3,1.3-4.9,1.9c-6.1,2.2-12,4.9-17.6,8.1C90.2,35.6,82.1,42,75.6,50.3c-5.1,6.5-9.2,13.5-12.6,21
				c-0.1,0.2-0.1,0.4-0.1,0.6c0.8,0,1.4-0.1,2-0.1c7.4-0.7,14.9-0.9,22.3-0.3c0.4,0,0.9,0.1,1.3,0.2c2,0.4,2.7,1.4,2.5,3.5
				c-0.1,0.6-0.3,1.2,0.1,1.7C95.1,76.8,99,76.7,103,76.6z M113.6,162.8c0.6,0,1-0.1,1.4-0.1c2.3-0.3,4.6-0.5,6.8-0.9
				c4.7-0.9,9.3-1.9,14-2.8c1.3-0.3,1.4-0.4,1.3-1.8c-0.2-3.1-0.3-6.2-0.7-9.3c-1.6-10.4-4.5-20.5-8.3-30.4
				c-0.1-0.4-0.3-0.7-0.5-1.2c-2.5,0.6-4.8,1.2-7.2,1.6c-2.4,0.5-4.9,0.9-7.3,1.3C113.5,133.8,114,148.2,113.6,162.8z M89.2,163.1
				c-2.1-14.3-1.7-28.4,0.3-42.5c-0.4,0-0.8-0.1-1.1-0.1c-2.4-0.2-4.8-0.3-7.2-0.6c-2.7-0.3-5.4-0.8-8.1-1.2
				c-0.9-0.1-0.9-0.1-1.3,0.7c-0.4,0.8-0.7,1.6-1.1,2.5c-3.6,8.4-5.4,17.2-4.5,26.4c0.4,4.3,1.6,8.3,3.5,12.2
				c0.2,0.4,0.5,0.7,0.9,0.7c0.3,0,0.6,0.1,1,0.2c5.5,0.9,10.9,1.5,16.5,1.8C88.4,163.1,88.7,163.1,89.2,163.1z M110.5,119.7
				c-6.3,0.3-12.6,0.6-19,1c0,0.3-0.1,0.5-0.1,0.8c-0.2,5.6-0.5,11.3-0.6,16.9c-0.2,7.5,0.1,15,0.8,22.5c0.1,0.8,0.2,1.5,0.3,2.2
				c2.9,0.6,17.5,0.3,19.2-0.3C111.1,162.8,110.5,119.7,110.5,119.7z M155.5,123.2c-0.1,0-0.2,0-0.3,0c-0.1,0.2-0.1,0.4-0.2,0.7
				c-0.8,2.6-1.6,5.3-2.4,7.9c-0.4,1.1-1,2.1-2,2.9c-1.7,1.4-4,1.2-5.3-0.7c-0.5-0.7-0.8-1.4-1.1-2.2c-0.4-1.3-0.7-2.5-0.8-3.8
				c-0.8-5.4-1-10.9-1-16.4c0-0.5,0-0.9,0-1.6c-1.6,0.9-2.9,1.6-4.3,2.3c-1.4,0.7-2.8,1.3-4.3,1.9c-1.4,0.6-2.9,1.1-4.4,1.6
				c0.1,0.3,0.2,0.5,0.3,0.6c0.8,1.5,1.6,3.1,2.2,4.6c3,7.3,5.2,14.9,6.7,22.7c0.9,4.5,1.4,9.1,1.1,13.7c0,0.1,0.1,0.1,0.1,0.2
				c0.1,0,0.2,0.1,0.3,0c2-0.7,4-1.4,6-2.2c1.5-0.6,2.9-1.4,4.3-2.1c2.1-1.1,4.1-2.2,6.2-3.2c0.6-0.3,0.9-0.8,1-1.4
				c0-0.4,0.1-0.7,0.2-1.1c0.8-6.4,0.3-12.7-1.1-19C156.4,126.7,155.9,125,155.5,123.2z M66.4,160.2c-0.1-0.4-0.2-0.5-0.3-0.6
				c-1.6-3-2.4-6.2-2.9-9.5c-0.9-5.9-0.5-11.8,0.9-17.6c1.2-5,2.8-9.8,5.7-14c0.1-0.1,0.1-0.3,0.1-0.4c-2.5-1-4.9-1.9-7.4-2.9
				c0,0.4,0,0.7,0.1,1.1c0.4,3.1,0.5,6.3,0.3,9.4c-0.1,1.7-0.4,3.4-0.7,5.1c-0.3,1.3-0.8,2.6-1.8,3.6c-1.5,1.5-3.5,1.9-5.2,0.7
				c-0.9-0.6-1.7-1.4-2.2-2.3c-0.8-1.3-1.5-2.7-2-4.1c-1.3-3.3-1.7-6.7-2-10.2c0-0.3-0.1-0.6-0.1-1c-0.3,0.3-0.4,0.6-0.5,0.9
				c-1.2,4-2.1,8-2.8,12.1c-0.7,4.8-1,9.6-0.3,14.4c0.3,1.9,0.6,3.9,1.5,5.7c1.1,2.3,2.6,4.2,5.2,5.2c4.3,1.7,8.7,3,13.2,4.1
				C65.6,160.1,65.9,160.1,66.4,160.2z M50.1,101.1c-1.2,0.6-2.3,1-3.3,1.5c-3.1,1.5-5.5,3.6-7.3,6.6c-0.7,1.2-1.4,2.5-2,3.8
				c-1.7,3.9-2.5,7.9-2.9,12.1c-0.4,5.8,0,11.4,1.8,17c1.1,3.5,3,6.4,6.1,8.5c0.1,0.1,0.3,0.2,0.4,0.3c0.2,0.1,0.4,0.2,0.7,0.4
				c0-0.3,0-0.4-0.1-0.5c-1.6-4-1.9-8.1-1.8-12.3c0.1-5.2,1.1-10.3,2.4-15.4c1-3.9,2.3-7.8,4.2-11.4c0.5-0.9,0.7-1.8,0.8-2.8
				c0.2-2.1,0.5-4.2,0.7-6.3C50,102.1,50,101.7,50.1,101.1z M160.8,147.3c1.6-1.4,3.1-2.5,4-4.3c2.1-4.6,3.6-9.4,3.7-14.4
				c0.1-12.5-5.5-21.7-16.3-27.8c-0.2-0.1-0.5-0.2-0.7-0.3c0,0.2-0.1,0.3-0.1,0.3c0.1,0.3,0.2,0.6,0.3,0.9c1.5,3.9,2.6,7.9,3.3,12.1
				c0.2,1.4,0.6,2.7,1.1,4c1,2.6,2,5.1,2.8,7.7c2,6.9,2.9,13.9,2,21C160.7,146.7,160.8,146.8,160.8,147.3z M111.6,184.6
				c0.6-0.4,1.1-0.6,1.5-0.9c4.1-2.5,7.7-5.5,11.3-8.7c2.6-2.3,5-4.7,7.1-7.5c1.2-1.6,2-3.4,2.8-5.3c-2.9,0.5-5.6,1.2-8.4,1.7
				c-2.9,0.5-5.7,1-8.6,1.4c-2.8,0.4-5.7,0.6-8.6,0.9C109.2,172.4,110.6,178.3,111.6,184.6z M89.2,166.1c-8-0.5-15.9-1.4-24-3.1
				c0.7,1.7,1.3,3.1,2.2,4.4c3.1,4.2,6.5,8.1,10.3,11.7c1.9,1.9,3.9,3.7,6.2,5.1c0.4,0.3,0.9,0.5,1.4,0.7c0.2-0.4,0.3-0.7,0.4-1
				c1.4-5.3,2.5-10.7,3.4-16.2C89.3,167.2,89.2,166.7,89.2,166.1z M111.7,89.3c3.2,2.7,6.7,4.6,11,4.8c0.4-1.2,0.6-2.2,1-3.2
				c2.1-5.4,4.1-10.9,6.2-16.3c0.2-0.4,0.3-0.9,0.5-1.4c-0.6,0-1-0.1-1.4-0.1c-2.7,0-5.4,0-8.1-0.1c-1.2,0-1.9,0.3-2.4,1.4
				c-2,4.4-4.1,8.8-6.2,13.2C112.1,88.2,111.9,88.7,111.7,89.3z M79.8,74.2c-0.3-0.1-0.4-0.1-0.5-0.1c-3.1,0.1-6.3,0.2-9.4,0.2
				c-0.6,0-1,0.3-1.3,0.8c-3.2,4.8-5.6,10-7,15.6c-0.2,0.6-0.2,1.3-0.3,1.9c2.5,1.2,5,1.6,7.6,1.9c0.6,0.1,0.8-0.2,1-0.7
				c0.3-0.9,0.7-1.8,1.1-2.7c2.3-5.4,5.1-10.5,8.1-15.5C79.2,75.1,79.5,74.7,79.8,74.2z M125.7,93.8c0.5,0,0.9,0,1.2-0.1
				c1.7-0.4,3.5-0.8,5.2-1.4c1.9-0.6,3.5-1.8,4.6-3.5c1.1-1.6,2.1-3.3,3-5c1.7-3,1.6-6.3,1.5-9.6c0-0.1-0.1-0.1-0.2-0.3
				c-2.4-0.4-4.9-0.4-7.6-0.5C130.9,80.2,128.3,86.9,125.7,93.8z M88.2,74.5c-0.3-0.1-0.7-0.2-1.1-0.2c-1.1-0.1-2.1-0.1-3.2-0.2
				c-1-0.1-1.5,0.3-2,1.2c-3.1,6.2-6.2,12.3-9.3,18.4c-0.1,0.2-0.1,0.4-0.2,0.8c3.8-0.1,7.5-0.7,10.5-3c0.8-0.6,1.6-1.3,2.1-2.2
				C87.8,84.7,89.6,80,88.2,74.5z M58.7,91.2c0.3-3.2,1.3-6,2.5-8.7c1.2-2.7,2.7-5.3,4.5-7.7c-1.7-0.3-10.9,0.7-12,1.2
				c0,0.1-0.1,0.3-0.1,0.5c0.2,2.3,0.3,4.7,0.6,7c0.2,1.9,0.8,3.7,1.8,5.3C56.8,89.7,57.5,90.5,58.7,91.2z M109.7,86.8
				c1.6-4.8,3.9-9.2,6.5-13.4c-1.3-0.3-9.5,0.1-10.6,0.4C105,77.8,107,84.4,109.7,86.8z M91.2,80.4c3.4-0.3,6.7-0.6,10-0.9
				c-3.1-0.5-6.2-0.4-9.3-0.1c-0.1,0-0.2,0-0.2,0C91.1,79.5,91,79.8,91.2,80.4z"/>
			<path id="XMLID_321_" class="st2" d="M54.8,91.5c0.2,0.1,0.3,0.1,0.4,0.2c3.1,3.1,7,4.5,11.2,5.1c4.5,0.7,8.9,0.6,13.3-0.7
				c3.6-1,6.5-3,8.5-6.2c1.1-1.8,1.8-3.9,2.3-5.9c0.1-0.4,0.2-0.9,0.3-1.3c4.3,0,8.6,0.1,12.9-0.5c0.4,0.9,0.8,1.9,1.2,2.8
				c3,6.3,8.1,9.8,14.9,10.9c4.1,0.7,8.2,0.3,12.2-0.8c3.9-1.1,7.1-3.4,9.3-6.8c0.1-0.2,0.2-0.3,0.4-0.5c0,0,0.1,0,0.2,0
				c0.1,0.2,0.3,0.3,0.4,0.6c1.3,2.6,2.7,5.3,3.9,7.9c3,6.4,5.2,13.1,6.4,20.1c0.8,5.1-0.2,9.8-2.2,14.5c-0.2,0.5-0.5,0.9-0.8,1.3
				c-0.8,1-1.6,0.9-2.1-0.2c-0.3-0.6-0.5-1.2-0.6-1.9c-0.9-3.6-1.2-7.4-1.5-11.1c-0.3-3.7-0.5-7.4-0.7-11c0-0.4-0.1-0.9-0.3-1.3
				c-0.3-0.6-1.1-0.7-1.3-0.1c-0.4,1-1.3,1.3-2.1,1.7c-7.4,3.6-15.3,5.9-23.4,7.3c-11.3,2-22.6,2.5-34,1.7
				c-5.6-0.4-11.2-1.2-16.6-3.1c-1.1-0.4-2.2-0.9-3.3-1.4c-1-0.4-1.6-1.1-1.6-2.2c0-0.3-0.1-0.7-0.2-1c-0.1-0.4-0.4-0.7-0.9-0.7
				c-0.5,0-0.8,0.3-0.9,0.7c-0.1,0.5-0.2,1.1-0.2,1.6c0.1,2.7,0.3,5.5,0.4,8.2c0.1,3,0.1,6.1-0.3,9.1c-0.1,0.9-0.4,1.8-0.7,2.7
				c-0.2,0.4-0.5,0.9-0.8,1.2c-0.5,0.5-1,0.6-1.5,0.1c-0.6-0.6-1.2-1.2-1.6-1.9c-1.3-2.1-1.9-4.5-2.4-6.9c-0.9-4.4-0.9-8.9-0.7-13.3
				c0.3-5.6,1-11.1,2.1-16.5c0.1-0.6,0.3-1.2,0.4-1.8C54.6,91.8,54.7,91.7,54.8,91.5z M100.9,88.7c0,0,0-0.1,0-0.1
				c-3.1,0.5-6.2,1-9.3,1.5c-0.9,0.2-1.5,0.7-1.5,1.7c0,0.7-0.1,1.4,0,2.1c0.6,2.5,1.3,4.9,2.8,7c2.8,4,7.3,3.9,10-0.2
				c1.8-2.8,2.3-5.8,2.1-9c0-0.4-0.1-0.9-0.2-1.3c-0.3-0.9-0.8-1.5-1.8-1.5C102.2,88.8,101.6,88.7,100.9,88.7z"/>
			<path id="XMLID_320_" class="st2" d="M103,76.6c-4,0.1-7.8,0.2-11.7,0.3c-0.4-0.5-0.2-1.1-0.1-1.7c0.3-2.1-0.5-3.1-2.5-3.5
				c-0.4-0.1-0.9-0.1-1.3-0.2c-7.5-0.6-14.9-0.4-22.3,0.3c-0.6,0.1-1.3,0.1-2,0.1c0.1-0.3,0-0.5,0.1-0.6c3.4-7.5,7.5-14.5,12.6-21
				c6.5-8.3,14.6-14.6,23.8-19.7c5.7-3.1,11.5-5.8,17.6-8.1c1.6-0.6,3.3-1.3,4.9-1.9c0.6,0.4,0.3,1,0.3,1.5
				c-0.2,1.8-0.6,3.6-0.8,5.3c-0.3,2.7-0.6,5.5-0.6,8.2c-0.2,6.5,1.1,12.7,3.1,18.8c1,3.1,2.1,6.1,3.3,9.1c0.8,2,2,3.8,3,5.7
				c0.1,0.2,0.2,0.4,0.4,0.8c-0.5,0-0.9,0.1-1.3,0.1c-6.8-0.1-13.6,0.1-20.4,0.8c-0.4,0-0.9,0.2-1.3,0.1c-1.7,0-2.9,0.8-3.8,2.1
				c-0.3,0.5-0.5,1.1-0.6,1.7C103.1,75.4,103,76,103,76.6z"/>
			<path id="XMLID_319_" class="st3" d="M113.6,162.8c0.4-14.6-0.1-29-0.7-43.5c2.5-0.4,4.9-0.8,7.3-1.3c2.4-0.5,4.8-1.1,7.2-1.6
				c0.2,0.4,0.4,0.8,0.5,1.2c3.8,9.8,6.8,19.9,8.3,30.4c0.5,3.1,0.5,6.2,0.7,9.3c0.1,1.4,0,1.5-1.3,1.8c-4.6,1-9.3,2-14,2.8
				c-2.2,0.4-4.5,0.6-6.8,0.9C114.6,162.8,114.2,162.8,113.6,162.8z"/>
			<path id="XMLID_318_" class="st3" d="M89.2,163.1c-0.4,0-0.8,0-1.2,0c-5.5-0.3-11-0.9-16.5-1.8c-0.3-0.1-0.6-0.1-1-0.2
				c-0.5-0.1-0.7-0.3-0.9-0.7c-1.8-3.9-3-7.9-3.5-12.2c-0.9-9.2,0.8-17.9,4.5-26.4c0.4-0.8,0.7-1.6,1.1-2.5c0.4-0.8,0.4-0.8,1.3-0.7
				c2.7,0.4,5.4,0.9,8.1,1.2c2.4,0.3,4.8,0.4,7.2,0.6c0.4,0,0.7,0.1,1.1,0.1C87.5,134.7,87.1,148.8,89.2,163.1z"/>
			<path id="XMLID_317_" class="st4" d="M110.5,119.7c0-0.1,0.6,43.1,0.6,43.1c-1.7,0.6-16.4,0.9-19.2,0.3c-0.1-0.7-0.2-1.5-0.3-2.2
				c-0.7-7.5-1-15-0.8-22.5c0.1-5.6,0.4-11.3,0.6-16.9c0-0.3,0.1-0.6,0.1-0.8C97.9,120.4,104.2,120.1,110.5,119.7z"/>
			<path id="XMLID_316_" class="st4" d="M155.5,123.2c0.5,1.8,1,3.5,1.4,5.3c1.4,6.3,1.9,12.6,1.1,19c0,0.4-0.1,0.7-0.2,1.1
				c0,0.7-0.4,1.1-1,1.4c-2.1,1.1-4.1,2.2-6.2,3.2c-1.4,0.7-2.8,1.5-4.3,2.1c-2,0.8-4,1.5-6,2.2c-0.1,0-0.2,0-0.3,0
				c-0.1-0.1-0.1-0.2-0.1-0.2c0.3-4.6-0.3-9.2-1.1-13.7c-1.5-7.8-3.7-15.4-6.7-22.7c-0.7-1.6-1.5-3.1-2.2-4.6
				c-0.1-0.2-0.2-0.4-0.3-0.6c1.5-0.6,3-1.1,4.4-1.6c1.4-0.6,2.9-1.2,4.3-1.9c1.4-0.7,2.7-1.4,4.3-2.3c0,0.7,0,1.2,0,1.6
				c-0.1,5.5,0.1,11,1,16.4c0.2,1.3,0.5,2.6,0.8,3.8c0.2,0.8,0.6,1.5,1.1,2.2c1.3,1.8,3.5,2.1,5.3,0.7c0.9-0.8,1.6-1.8,2-2.9
				c0.8-2.6,1.6-5.2,2.4-7.9c0.1-0.2,0.1-0.4,0.2-0.7C155.3,123.2,155.4,123.2,155.5,123.2z"/>
			<path id="XMLID_315_" class="st4" d="M66.4,160.2c-0.5-0.1-0.8-0.1-1.1-0.2c-4.5-1.1-8.9-2.4-13.2-4.1c-2.6-1-4.1-2.9-5.2-5.2
				c-0.8-1.8-1.2-3.7-1.5-5.7c-0.7-4.8-0.4-9.6,0.3-14.4c0.6-4.1,1.6-8.1,2.8-12.1c0.1-0.3,0.2-0.6,0.5-0.9c0,0.3,0.1,0.6,0.1,1
				c0.2,3.5,0.7,6.9,2,10.2c0.5,1.4,1.2,2.8,2,4.1c0.6,0.9,1.4,1.7,2.2,2.3c1.7,1.2,3.8,0.9,5.2-0.7c1-1,1.5-2.2,1.8-3.6
				c0.3-1.7,0.6-3.4,0.7-5.1c0.2-3.2,0.1-6.3-0.3-9.4c0-0.3,0-0.7-0.1-1.1c2.5,1,4.9,1.9,7.4,2.9c0,0.1-0.1,0.3-0.1,0.4
				c-2.9,4.3-4.5,9.1-5.7,14c-1.4,5.8-1.8,11.6-0.9,17.6c0.5,3.3,1.4,6.5,2.9,9.5C66.2,159.7,66.3,159.8,66.4,160.2z"/>
			<path id="XMLID_314_" class="st3" d="M50.1,101.1c0,0.7-0.1,1-0.1,1.4c-0.2,2.1-0.5,4.2-0.7,6.3c-0.1,1-0.3,1.9-0.8,2.8
				c-1.9,3.6-3.1,7.5-4.2,11.4c-1.3,5-2.3,10.1-2.4,15.4c-0.1,4.2,0.2,8.3,1.8,12.3c0,0.1,0,0.2,0.1,0.5c-0.3-0.1-0.5-0.2-0.7-0.4
				c-0.1-0.1-0.3-0.2-0.4-0.3c-3.1-2.1-5-4.9-6.1-8.5c-1.8-5.6-2.2-11.2-1.8-17c0.3-4.2,1.2-8.3,2.9-12.1c0.6-1.3,1.3-2.6,2-3.8
				c1.7-2.9,4.2-5.1,7.3-6.6C47.8,102.1,48.8,101.6,50.1,101.1z"/>
			<path id="XMLID_313_" class="st3" d="M160.8,147.3c0-0.4-0.1-0.6,0-0.7c0.9-7.2,0-14.1-2-21c-0.8-2.6-1.8-5.2-2.8-7.7
				c-0.5-1.3-0.9-2.6-1.1-4c-0.6-4.1-1.8-8.2-3.3-12.1c-0.1-0.3-0.2-0.6-0.3-0.9c0-0.1,0-0.2,0.1-0.3c0.3,0.1,0.5,0.2,0.7,0.3
				c10.8,6.1,16.5,15.3,16.3,27.8c-0.1,5.1-1.5,9.9-3.7,14.4C163.9,144.8,162.4,145.9,160.8,147.3z"/>
			<path id="XMLID_312_" class="st2" d="M111.6,184.6c-1-6.3-2.4-12.2-3-18.4c3-0.3,5.8-0.5,8.6-0.9c2.9-0.4,5.7-0.8,8.6-1.4
				c2.8-0.5,5.6-1.2,8.4-1.7c-0.8,1.9-1.6,3.7-2.8,5.3c-2.1,2.7-4.5,5.2-7.1,7.5c-3.5,3.2-7.2,6.2-11.3,8.7
				C112.7,184,112.2,184.2,111.6,184.6z"/>
			<path id="XMLID_311_" class="st2" d="M89.2,166.1c0,0.6,0.1,1.1,0,1.6c-0.9,5.5-2,10.9-3.4,16.2c-0.1,0.3-0.2,0.6-0.4,1
				c-0.5-0.3-1-0.5-1.4-0.7c-2.3-1.4-4.3-3.3-6.2-5.1c-3.7-3.6-7.2-7.5-10.3-11.7c-0.9-1.3-1.5-2.7-2.2-4.4
				C73.4,164.7,81.2,165.7,89.2,166.1z"/>
			<path id="XMLID_310_" class="st4" d="M111.7,89.3c0.2-0.6,0.4-1.1,0.6-1.6c2.1-4.4,4.2-8.8,6.2-13.2c0.5-1.1,1.2-1.5,2.4-1.4
				c2.7,0.1,5.4,0,8.1,0.1c0.4,0,0.8,0,1.4,0.1c-0.2,0.6-0.4,1-0.5,1.4c-2.1,5.4-4.2,10.9-6.2,16.3c-0.4,1-0.6,2-1,3.2
				C118.4,93.9,114.9,92,111.7,89.3z"/>
			<path id="XMLID_309_" class="st4" d="M79.8,74.2c-0.3,0.5-0.5,0.9-0.8,1.3c-3,5-5.8,10.2-8.1,15.5c-0.4,0.9-0.7,1.8-1.1,2.7
				c-0.2,0.5-0.4,0.7-1,0.7c-2.6-0.3-5.1-0.7-7.6-1.9c0.1-0.6,0.1-1.3,0.3-1.9c1.4-5.6,3.8-10.8,7-15.6c0.3-0.5,0.6-0.8,1.3-0.8
				c3.1-0.1,6.3-0.1,9.4-0.2C79.3,74.1,79.5,74.1,79.8,74.2z"/>
			<path id="XMLID_308_" d="M125.7,93.8c2.6-6.9,5.2-13.6,7.8-20.3c2.6,0.1,5.2,0.1,7.6,0.5c0.1,0.2,0.2,0.2,0.2,0.3
				c0.2,3.3,0.3,6.6-1.5,9.6c-1,1.7-1.9,3.4-3,5c-1.1,1.7-2.7,2.9-4.6,3.5c-1.7,0.5-3.5,0.9-5.2,1.4
				C126.5,93.8,126.2,93.7,125.7,93.8z"/>
			<path id="XMLID_307_" d="M88.2,74.5c1.4,5.5-0.4,10.2-3.1,14.8c-0.5,0.9-1.3,1.6-2.1,2.2c-3.1,2.4-6.7,2.9-10.5,3
				c0.1-0.3,0.1-0.6,0.2-0.8c3.1-6.1,6.2-12.3,9.3-18.4c0.4-0.9,0.9-1.3,2-1.2c1.1,0.1,2.1,0.1,3.2,0.2
				C87.5,74.3,87.9,74.4,88.2,74.5z"/>
			<path id="XMLID_306_" d="M58.7,91.2c-1.3-0.7-2-1.5-2.6-2.5c-1-1.6-1.6-3.4-1.8-5.3c-0.3-2.3-0.4-4.6-0.6-7c0-0.2,0-0.3,0.1-0.5
				c1.1-0.6,10.3-1.5,12-1.2c-1.8,2.4-3.3,5-4.5,7.7C60,85.2,59,88,58.7,91.2z"/>
			<path id="XMLID_305_" d="M109.7,86.8c-2.7-2.5-4.7-9-4.1-13c1-0.3,9.3-0.7,10.6-0.4C113.5,77.7,111.3,82.1,109.7,86.8z"/>
			<path id="XMLID_304_" d="M91.2,80.4c-0.2-0.6-0.1-0.9,0.4-1c0.1,0,0.2,0,0.2,0c3.1-0.2,6.2-0.3,9.3,0.1
				C97.8,79.8,94.5,80.1,91.2,80.4z"/>
			<path id="XMLID_298_" d="M100.9,88.7c0.7,0,1.3,0.1,2,0.1c1,0.1,1.6,0.6,1.8,1.5c0.1,0.4,0.2,0.9,0.2,1.3c0.2,3.2-0.4,6.3-2.1,9
				c-2.7,4.1-7.2,4.2-10,0.2c-1.5-2.1-2.2-4.6-2.8-7c-0.2-0.7-0.1-1.4,0-2.1c0.1-0.9,0.6-1.5,1.5-1.7c3.1-0.5,6.2-1,9.3-1.5
				C100.9,88.6,100.9,88.7,100.9,88.7z M92.5,92.4c0.1,3.1,1.3,5.6,3.4,7.8c0.1,0.1,0.1,0.1,0.2,0.2c1.2,0.9,2.5,0.8,3.5-0.2
				c0.4-0.3,0.7-0.7,0.9-1.1c1.3-2,1.9-4.2,1.9-6.6c0-0.3-0.1-0.6-0.2-1C99,91.7,95.9,92,92.5,92.4z"/>
			<path id="XMLID_296_" class="st5" d="M92.5,92.4c3.3-0.3,6.5-0.6,9.7-1c0.1,0.4,0.2,0.7,0.2,1c0,2.4-0.6,4.6-1.9,6.6
				c-0.3,0.4-0.6,0.8-0.9,1.1c-1.1,1-2.3,1.1-3.5,0.2c-0.1,0-0.1-0.1-0.2-0.2C93.9,98,92.7,95.5,92.5,92.4z"/>
		</g>
	</g>
</g>
<g id="Capa_2">
	<path id="XMLID_365_" d="M148.5,83.5c2.9,1.1,5.6,2,8.3,3c3.8,1.4,7.4,3.1,10.7,5.4c1.8,1.2,3.4,2.5,4.8,4.2c1.1,1.4,2,3,2.3,4.8
		c0.1,0.5,0.5,0.9,0.9,1.3c6.5,5.9,11,13,13.4,21.3c1.8,5.9,2,11.9,0.1,17.8c-0.3,0.9-0.6,1.7-1.1,2.5c-2.5,4.3-5.6,8.2-8.9,11.9
		c-2.2,2.4-4.7,4.4-7.2,6.5c-10.8,9.3-23.4,14.8-37.2,17.7c-9.3,2-18.6,2.8-28.1,2.8c-9.6,0-19.1-0.7-28.6-2.5
		c-7.8-1.5-15.4-3.8-22.5-7.6c-6.9-3.7-12.7-8.7-17.3-15c-0.4-0.5-0.8-1.1-1.2-1.6c-3-3.9-4.8-8.3-5.3-13.3
		c-0.8-8,0.9-15.4,5.1-22.2c2.3-3.8,5.3-6.9,9.2-9c0.5-0.3,0.7-0.6,0.9-1.1c1-3.9,2.7-7.5,4.5-11.1c0.6-1.1,0.8-2.2,0.8-3.5
		c-0.1-4.2,0.7-8.4,1.7-12.5c2.3-10.6,6.8-20.3,13.3-29c3-4,6.2-7.9,9.8-11.5c6.7-6.9,14.3-12.9,22.4-18.2c2.2-1.4,4.3-2.8,6.8-3.7
		c2.4-0.9,4.8-1.5,7.3-1.5c1.8-0.1,2.5,0.6,2.4,2.4c0,1.1-0.2,2.2-0.4,3.3c-0.6,4.3-1.2,8.5-1.7,12.8c-0.4,3.8-0.2,7.7,0.7,11.5
		c1.2,5,3.7,9.3,7.1,13c2.6,2.9,5.6,5.4,8.6,7.9c0.6,0.5,1.2,0.5,1.8,0.5c2.9-0.3,5.9-0.4,8.8-0.1c1.1,0.1,2.3,0.2,3.3,0.9
		c0.3,0.2,0.7,0.2,1.1,0.1c0.8-0.1,1.5,0.3,1.9,0.9c1.9,2.6,2.9,5.5,2.4,8.8c-0.1,0.4-0.3,0.8-0.4,1.1
		C148.9,82.6,148.7,83,148.5,83.5z M147.9,85.7c-0.2,0.1-0.3,0.1-0.3,0.2c-0.2,0.3-0.4,0.6-0.6,0.9c-2.7,4.2-6.4,6.9-11.4,7.2
		c-9,0.6-16-3-20.6-10.9c-0.2-0.3-0.4-0.6-0.6-0.9c-3.3,0.8-6.5,1.6-9.8,2.4c0,0.5,0.1,0.9,0.1,1.4c0.1,1.9,0.3,3.8,0.3,5.8
		c-0.1,4.5-2.3,7.8-5.7,10.5c-2.2,1.7-4.7,2.7-7.4,3.1c-10.8,1.6-20.4-1.2-28.4-8.7c-0.4-0.4-0.7-0.7-1.1-1.1
		c-0.2,0.1-0.3,0.2-0.3,0.2c-2.2,3-4.4,6-6.6,9c-0.2,0.3-0.3,0.8-0.3,1.3c0.1,1.5,0.1,3,0.4,4.5c0.5,3.4,1.1,6.7,1.8,10
		c0.1,0.6,0.4,1.2,0.8,1.6c1.6,1.3,3.4,2.4,5.1,3.6c0.2,0.2,0.6,0.2,1,0.4c-0.2-0.6-0.3-1-0.4-1.3c-0.5-1.6-1-3.3-1.5-4.9
		c-0.1-0.4-0.2-0.8-0.1-1.2c0-0.2,0.2-0.6,0.4-0.7c0.2-0.1,0.5,0.1,0.7,0.3c0.2,0.2,0.4,0.5,0.5,0.8c0.4,0.8,0.7,1.6,1,2.4
		c1.9,4.6,4.1,9.1,6.7,13.4c1.5,2.3,3,4.6,5.1,6.4c1,0.9,2.2,1.6,3.3,2.3c0.4,0.2,0.9,0.3,1.6,0.4c-0.1-1-0.1-1.7-0.4-2.4
		c-0.6-2-1.3-3.9-2-5.8c-2.4-6.4-4.7-12.9-6.1-19.7c-0.3-1.4-0.5-2.9-0.6-4.4c-0.1-0.7,0.3-1.1,0.9-1.1c0.6-0.1,0.9,0.3,1,0.8
		c0.2,0.6,0.3,1.1,0.5,1.7c1.5,5,3.1,9.9,4.7,14.9c0.2,0.6,0.6,1.1,1.2,1.3c1.6,0.5,3.1,1.1,4.7,1.4c4.3,0.9,8.8,1.3,13.2,1.5
		c4.7,0.2,9.3,0.1,14-0.4c7.1-0.7,14.2-1.7,21.3-3.1c1-0.2,2-0.2,3-0.3c1.4-0.1,2.1,0.5,2.7,1.7c1.3,2.4,2.8,4.7,4.2,7.1
		c0.2,0.4,0.5,0.7,0.9,1.2c0.2-0.8,0.4-1.4,0.5-1.9c1.1-5.8,1.8-11.6,1.5-17.5c-0.1-2.4-0.5-4.7-0.9-7.1c-0.5-2.7-1.6-3.3-4.3-2.7
		c-2,0.4-3.8,1.3-5.5,2.4c-2.2,1.3-4.2,2.8-6.4,4.2c-1.7,1.1-3.5,2.1-5.3,3.1c-0.4,0.2-0.9,0.4-1.4,0.4c-0.3,0-0.7-0.2-0.8-0.4
		c-0.1-0.2,0-0.6,0.1-0.9c0.2-0.3,0.5-0.5,0.7-0.6c3.2-2.3,6.4-4.6,9.6-6.9c1.5-1,3.2-1.9,4.8-2.8c1.3-0.7,2.7-1.1,4.2-1.2
		c2.6-0.3,4.5,0.8,5.6,3.1c0.5,1,0.9,2.1,1.2,3.2c0.8,2.7,1.1,5.5,1.3,8.4c0,0.3,0.1,0.7,0.1,1.1c0.3-0.1,0.4-0.1,0.6-0.2
		c3.4-1.9,6.9-3.8,10.3-5.7c1.5-0.9,2.3-0.7,2.7,1.1c0,0.2,0.1,0.4,0.1,0.6c0.6,2.4,1.3,4.7,2,7.1c0.1,0.2,0.2,0.4,0.4,0.7
		c0.1-0.1,0.2-0.2,0.3-0.2c2-4.3,3.8-8.7,4.5-13.5c0.2-1.6,0.4-3.2,0.1-4.8c-0.4-1.9-1.5-3.2-3.4-3.6c-0.9-0.2-1.8-0.4-2.7-0.4
		c-3-0.2-5.9,0-8.8,0.4c-0.6,0.1-1.2,0.1-1.8,0.2c-0.6,0-1.1-0.2-1.2-0.8c-0.1-0.5,0.1-0.9,0.8-1.2c0.5-0.2,1.1-0.4,1.7-0.5
		c1.7-0.3,3.4-0.5,5.1-0.8c0.3,0,0.6-0.1,1-0.2c-0.2-0.5-0.4-0.8-0.6-1.2c-2.6-4.6-6.1-8.5-10-12C149.8,86.9,148.8,86.3,147.9,85.7z
		 M54.7,92.3c0.1,0,0.1,0.1,0.2,0.1c0.2-0.3,0.4-0.6,0.6-0.9c0.7-1,1.3-2,2-3c0.3-0.4,0.6-0.8,0.9-0.9c1.9-1,3.8-2,5.7-2.8
		c6.5-2.6,13.1-4.7,19.8-6.5c4.2-1.1,8.5-1.9,12.8-2.2c1.9-0.1,3.4,0.5,4.7,1.9c0.3,0.3,0.7,0.7,1,1.1c2.8-1.2,5.7-1.9,8.6-2.4
		c0.4-0.1,0.7-0.3,1-0.6c0.5-0.4,0.9-0.9,1.4-1.1c1-0.5,2-1,3.1-1.3c3-0.8,5.9-1.5,8.9-2.3c0.5-0.1,1-0.2,1.7-0.4
		c-0.5-0.4-0.9-0.7-1.2-0.9c-1.2-1-2.5-1.9-3.7-2.9c-5.4-4.7-9.3-10.4-11-17.5c-1.1-4.9-1.2-9.8-0.5-14.8c0.6-4.1,1.4-8.1,2.2-12.2
		c0.1-0.4,0.1-0.8,0.2-1.3c-0.4,0-0.6,0-0.8,0.1c-3.7,1-7.4,2.1-10.6,4.3c-2.8,1.9-5.5,3.8-8.2,5.8c-10,7.5-18.7,16.2-25.7,26.5
		c-6,8.7-10.2,18.2-12.2,28.6C55.3,88.7,55,90.5,54.7,92.3z M107.3,135.8c0,0.4-0.1,0.6-0.1,0.8c0.1,5,0.1,10.1,0.2,15.1
		c0.2,8.3,0.4,16.6,0.6,24.9c0,1,0.2,1.9,0.2,3c10.1-0.2,19.9-1.2,29.6-3.7c1.5-15.2-0.4-29.7-6.3-43.7
		C123.6,134.1,115.5,135.2,107.3,135.8z M54,122.4c-0.5,0.4-0.8,0.6-1.1,0.9c-1.7,1.6-3.1,3.5-4.4,5.4c-2.7,4.3-4.8,8.8-6.2,13.6
		c-1.1,3.6-1.6,7.3-1.3,11c0.2,2.5,1,4.8,2.9,6.6c2.3,2.4,4.8,4.6,7.5,6.5c6.6,4.7,14,7.5,21.9,9.4c0.2,0.1,0.5,0,0.7,0
		c0-0.2,0-0.4-0.1-0.6c-1.1-2.8-1.5-5.8-1.6-8.8c-0.3-7.5,0.2-14.8,2.5-22c0.2-0.5,0.1-0.9-0.3-1.2c-3.4-3.4-5.8-7.6-7.9-11.9
		c-0.2-0.4-0.4-0.9-0.6-1.3c-0.2-0.3-0.5-0.6-0.8-0.7c-2-0.3-3.8-1.4-5.4-2.4c-0.7-0.4-1.4-0.9-2-1.4c-0.5-0.4-1-0.8-1.5-1.2
		C55.5,123.9,54.8,123.2,54,122.4z M105.8,179.6c0-0.3,0-0.4,0-0.5c-0.9-5.3-1-10.6-1.1-15.9c-0.2-8.8,0-17.5,0.5-26.3
		c0-0.3,0-0.6-0.1-1c-8.2,0-16.2-0.6-24.1-3.7c0.3,0.7,0.4,1.2,0.6,1.6c0.7,1.9,1.4,3.7,2.1,5.6c0.5,1.4,0.8,2.8,0.8,4.3
		c-0.1,2.4-1.7,3.7-4,3.2c-0.9-0.2-1.8-0.7-2.7-1c-0.3-0.1-0.6-0.3-1-0.4c-0.1,0.3-0.2,0.5-0.2,0.6c-1.5,8.2-2,16.4-1.2,24.7
		c0.1,1.5,0.6,3,0.9,4.4c0.2,1.1,0.9,1.6,2,1.8c8.7,1.6,17.4,2.4,26.3,2.5C105,179.6,105.4,179.6,105.8,179.6z M141,175.1
		c0.3-0.1,0.6-0.1,1-0.2c8.1-2.4,15.7-6,22.7-10.7c0.7-0.4,1-1,1.2-1.7c1-4.6,0.8-9.2,0.1-13.8c-1.4-9.1-4.2-17.7-8.2-26
		c-0.1-0.2-0.3-0.5-0.4-0.6c-2.6,1.2-5.2,2.4-7.8,3.6c-0.1,1-0.2,2.2-0.3,3.3c-0.3,3.1-0.8,6.3-1.8,9.3c-0.3,0.8-0.6,1.6-1.1,2.3
		c-0.8,1.4-1.8,1.6-3,0.5c-0.7-0.5-1.2-1.2-1.7-1.9c-1.8-2.4-3.3-5-4.5-7.7c-0.1-0.3-0.3-0.6-0.5-1c-1,0.4-2,0.8-2.8,1.2
		C140.7,145.5,142.7,159.9,141,175.1z M173.7,109.7c-0.1,0.7-0.1,1.2-0.2,1.7c-0.6,5.1-2.1,10-4.6,14.5c-0.8,1.5-2.3,1.9-3.6,2.5
		c-0.3,0.1-0.9-0.1-1.3-0.3c-0.3-0.1-0.5-0.3-0.8-0.5c0,0.2-0.1,0.3,0,0.3c0.1,0.3,0.2,0.6,0.4,0.9c1.8,4.4,3.3,8.8,4.3,13.4
		c1.3,5.8,2.2,11.7,1.4,17.6c0,0.2,0,0.4,0,0.6c0.2,0,0.3,0,0.3,0c0.3-0.2,0.7-0.5,1-0.8c4.4-3.8,8.3-8,11.9-12.5
		c0.8-1,1.5-2.2,2-3.3c2.6-5.7,3-11.7,1.6-17.8c-0.6-2.4-1.2-4.9-2.5-7c-2.1-3.3-4.8-6.1-8-8.4C175,110.4,174.5,110.1,173.7,109.7z
		 M38,152.2c0-0.6,0-0.9,0-1.2c0.1-1.8,0.1-3.6,0.5-5.4c1.1-6.2,3.7-11.8,7-17c1.8-2.9,3.9-5.5,6.8-7.3c0.1-0.1,0.2-0.2,0.3-0.3
		c-0.1-0.3-0.2-0.6-0.4-0.9c-0.6-1.3-0.1-1.9,1.3-1.9c0.1,0,0.2,0,0.3-0.1c-0.4-3.1-0.9-6.2-1.3-9.4c-0.6,0.4-0.9,0.9-0.7,1.6
		c0.2,0.7-0.1,1.2-0.7,1.5c-0.7,0.4-1.4,0.8-2.2,1.2c-4.5,2.2-7.9,5.7-10.4,10c-2.7,4.7-4.1,9.9-4.4,15.3c-0.3,4.8,0.9,9.2,3.4,13.2
		C37.6,151.8,37.7,151.9,38,152.2z M90.9,102.4c4.1-0.8,7.6-2.2,9.9-5.8c0.7-1.1,1.2-2.2,1.2-3.6c0.2-3.5-0.1-7-1.1-10.3
		c-0.4-1.1-0.9-2.2-1.8-3.1c-0.6-0.7-1.3-1-2.3-1.1c-1.7-0.1-3.3,0.3-5,0.7c-0.2,0.1-0.4,0.4-0.6,0.7c-0.1,0.3-0.1,0.6-0.1,0.9
		c-0.2,6.8-0.3,13.6-0.5,20.4C90.8,101.6,90.9,101.9,90.9,102.4z M89,80.1c-0.3,0-0.5,0-0.6,0c-3,0.8-5.9,1.6-8.9,2.4
		c-0.7,0.2-0.9,0.6-0.9,1.2c-0.4,3-0.6,6-0.6,9c0.1,2.7,0.4,5.3,0.6,7.9c0.1,0.8,0.4,1.1,1.2,1.3c2.4,0.5,4.8,0.8,7.3,0.7
		c0.2,0,0.5-0.1,0.8-0.1C87.4,95.1,87.9,87.6,89,80.1z M60.9,88.8c1.4,4.1,11,11.7,14.9,11.8c-1.2-5.7-0.8-11.3,0.5-17.1
		C71,85.1,65.9,86.8,60.9,88.8z M137.1,90.5c0.2,0,0.4,0,0.5,0c0.3-0.1,0.6-0.2,0.9-0.3c3.2-1.3,5.4-3.6,6.9-6.6
		c1.3-2.5,1.6-5.1,0.4-7.8c-0.2-0.5-0.4-1.1-0.7-1.6c-0.2-0.4-0.4-0.7-0.6-1c-0.3-0.4-0.6-0.5-1.1-0.4c-1.8,0.2-3.7,0.3-5.5,0.4
		c-0.4,0-0.9,0.1-1.4,0.1C136.4,79.1,136.5,84.8,137.1,90.5z M134.1,91.1c-0.1-3.1-0.4-5.9-0.4-8.8c0-2.9,0.3-5.8,0.5-8.8
		c-0.2,0-0.4-0.1-0.6,0c-1.9,0.2-3.9,0.4-5.8,0.7c-1,0.1-1,0.2-1.1,1.1c-0.3,3.7-0.3,7.4-0.1,11c0.1,1,0.4,2.1,0.7,3.1
		c0.1,0.3,0.5,0.7,0.8,0.8C130,90.8,132,91.2,134.1,91.1z M124.4,74.8c-2.1,0-8.1,1.6-9,2.3c1,4.6,5.7,10,8.7,11.1
		C123.2,83.7,123.4,79.3,124.4,74.8z M157,89.8c3,3.3,5.7,6.7,7.2,11c2.7,0.2,5.3,0.6,7.4,2.6c0.4-1.3,0.3-2.5-0.3-3.4
		c-0.7-1.1-1.4-2.2-2.4-3.1C165.6,93.5,161.4,91.5,157,89.8z M52.5,103.5c0.1,0,0.1,0.1,0.2,0.1c0.3-0.3,0.6-0.7,0.8-1
		c1.7-2.1,3.4-4.3,5.1-6.4c0.5-0.7,1.1-1.3,1.7-2c0.2-0.2,0.3-0.7,0.2-0.8c-0.5-0.9-1-1.7-1.6-2.7C56.6,95.1,54.4,99.2,52.5,103.5z
		 M113.6,79.4c-0.3-0.2-0.4-0.4-0.5-0.4c-0.7-0.1-8.7,1.9-9.5,2.4c0.2,0.3,0.3,0.7,0.4,0.9C107.3,81.4,110.3,80.4,113.6,79.4z
		 M174.3,104.5c-0.5,0.4-0.9,0.8-1.3,1.1c0,1.2,0.5,1.7,1.6,1.9c0.7,0.1,1.4,0.6,2.1,0.9c0.2,0.1,0.5,0.2,0.7,0.3
		c0-0.1,0.1-0.1,0.1-0.2C176.5,107.2,175.5,105.9,174.3,104.5z M162.2,125.7c0,0,0.1,0,0.1,0c-0.5-2-1-4.1-1.5-6.2
		c-0.6,0.4-1,0.8-1.5,1.1C160.3,122.3,161.3,124,162.2,125.7z"/>
	<path id="XMLID_342_" class="st2" d="M147.9,85.7c0.9,0.6,1.9,1.1,2.7,1.9c4,3.5,7.4,7.4,10,12c0.2,0.3,0.4,0.7,0.6,1.2
		c-0.4,0.1-0.7,0.2-1,0.2c-1.7,0.3-3.4,0.5-5.1,0.8c-0.6,0.1-1.1,0.3-1.7,0.5c-0.7,0.2-0.9,0.6-0.8,1.2c0.1,0.6,0.6,0.8,1.2,0.8
		c0.6,0,1.2-0.1,1.8-0.2c2.9-0.4,5.9-0.6,8.8-0.4c0.9,0,1.8,0.2,2.7,0.4c1.9,0.4,3,1.7,3.4,3.6c0.3,1.6,0.2,3.2-0.1,4.8
		c-0.7,4.7-2.5,9.2-4.5,13.5c0,0.1-0.1,0.1-0.3,0.2c-0.1-0.2-0.3-0.4-0.4-0.7c-0.7-2.4-1.3-4.7-2-7.1c-0.1-0.2-0.1-0.4-0.1-0.6
		c-0.4-1.8-1.2-2-2.7-1.1c-3.4,2-6.9,3.8-10.3,5.7c-0.1,0.1-0.3,0.1-0.6,0.2c0-0.4-0.1-0.8-0.1-1.1c-0.1-2.8-0.5-5.6-1.3-8.4
		c-0.3-1.1-0.7-2.2-1.2-3.2c-1.1-2.3-3-3.3-5.6-3.1c-1.5,0.1-2.9,0.5-4.2,1.2c-1.6,0.9-3.3,1.7-4.8,2.8c-3.2,2.2-6.4,4.6-9.6,6.9
		c-0.3,0.2-0.6,0.4-0.7,0.6c-0.1,0.2-0.3,0.7-0.1,0.9c0.1,0.2,0.5,0.5,0.8,0.4c0.5,0,1-0.2,1.4-0.4c1.8-1,3.6-2,5.3-3.1
		c2.2-1.3,4.2-2.8,6.4-4.2c1.7-1.1,3.5-2,5.5-2.4c2.7-0.6,3.8,0,4.3,2.7c0.5,2.3,0.8,4.7,0.9,7.1c0.3,5.9-0.4,11.7-1.5,17.5
		c-0.1,0.6-0.3,1.1-0.5,1.9c-0.4-0.5-0.7-0.9-0.9-1.2c-1.4-2.4-2.9-4.7-4.2-7.1c-0.6-1.1-1.3-1.7-2.7-1.7c-1,0-2,0.1-3,0.3
		c-7,1.4-14.1,2.4-21.3,3.1c-4.7,0.5-9.3,0.6-14,0.4c-4.4-0.2-8.8-0.6-13.2-1.5c-1.6-0.3-3.1-0.9-4.7-1.4c-0.6-0.2-1-0.6-1.2-1.3
		c-1.5-5-3.1-9.9-4.7-14.9c-0.2-0.5-0.3-1.1-0.5-1.7c-0.1-0.5-0.4-0.9-1-0.8c-0.6,0-0.9,0.4-0.9,1.1c0.1,1.5,0.3,2.9,0.6,4.4
		c1.4,6.8,3.7,13.3,6.1,19.7c0.7,1.9,1.4,3.9,2,5.8c0.2,0.7,0.2,1.4,0.4,2.4c-0.7-0.2-1.2-0.2-1.6-0.4c-1.1-0.7-2.3-1.4-3.3-2.3
		c-2.1-1.8-3.6-4.1-5.1-6.4c-2.7-4.2-4.8-8.8-6.7-13.4c-0.3-0.8-0.7-1.6-1-2.4c-0.1-0.3-0.3-0.6-0.5-0.8c-0.2-0.2-0.5-0.4-0.7-0.3
		c-0.2,0.1-0.4,0.4-0.4,0.7c0,0.4,0,0.8,0.1,1.2c0.5,1.7,1,3.3,1.5,4.9c0.1,0.4,0.2,0.8,0.4,1.3c-0.5-0.2-0.8-0.3-1-0.4
		c-1.7-1.2-3.5-2.4-5.1-3.6c-0.4-0.3-0.7-1-0.8-1.6c-0.6-3.3-1.2-6.7-1.8-10c-0.2-1.5-0.3-3-0.4-4.5c0-0.4,0.1-0.9,0.3-1.3
		c2.2-3,4.4-6,6.6-9c0-0.1,0.1-0.1,0.3-0.2c0.4,0.3,0.7,0.7,1.1,1.1c8.1,7.5,17.6,10.3,28.4,8.7c2.7-0.4,5.3-1.4,7.4-3.1
		c3.4-2.7,5.7-6,5.7-10.5c0-1.9-0.2-3.8-0.3-5.8c0-0.5-0.1-1-0.1-1.4c3.3-0.8,6.5-1.6,9.8-2.4c0.2,0.3,0.4,0.6,0.6,0.9
		c4.7,7.8,11.6,11.5,20.6,10.9c5-0.3,8.7-3.1,11.4-7.2c0.2-0.3,0.4-0.6,0.6-0.9C147.6,85.9,147.7,85.9,147.9,85.7z M119.3,92
		c-2.8,0.1-5.4,0.6-8,1.5c-0.8,0.3-1.6,0.7-2.4,1.2c-0.9,0.5-1.2,1.2-0.8,2.2c1.3,3.6,3.6,6.3,7.1,7.8c3.4,1.5,6.9-0.1,8.1-3.7
		c0.8-2.2,0.6-4.4-0.2-6.6C122.3,92.3,121.6,91.9,119.3,92z"/>
	<path id="XMLID_341_" class="st2" d="M54.7,92.3c0.3-1.8,0.5-3.6,0.9-5.4c2-10.4,6.3-19.9,12.2-28.6c7.1-10.3,15.8-19,25.7-26.5
		c2.7-2,5.5-3.9,8.2-5.8c3.2-2.2,6.9-3.3,10.6-4.3c0.2-0.1,0.5,0,0.8-0.1c-0.1,0.5-0.1,0.9-0.2,1.3c-0.7,4.1-1.6,8.1-2.2,12.2
		c-0.7,4.9-0.7,9.9,0.5,14.8c1.6,7.1,5.6,12.8,11,17.5c1.2,1,2.4,1.9,3.7,2.9c0.3,0.2,0.6,0.5,1.2,0.9c-0.8,0.2-1.3,0.3-1.7,0.4
		c-3,0.8-6,1.5-8.9,2.3c-1.1,0.3-2.1,0.8-3.1,1.3c-0.5,0.3-0.9,0.8-1.4,1.1c-0.3,0.2-0.7,0.5-1,0.6c-2.9,0.5-5.8,1.2-8.6,2.4
		c-0.3-0.4-0.7-0.7-1-1.1c-1.3-1.3-2.8-2-4.7-1.9c-4.4,0.3-8.6,1.1-12.8,2.2c-6.7,1.7-13.4,3.8-19.8,6.5c-2,0.8-3.8,1.8-5.7,2.8
		c-0.4,0.2-0.7,0.6-0.9,0.9c-0.7,1-1.3,2-2,3c-0.2,0.3-0.4,0.6-0.6,0.9C54.9,92.3,54.8,92.3,54.7,92.3z"/>
	<path id="XMLID_340_" class="st4" d="M107.3,135.8c8.2-0.6,16.3-1.7,24.3-3.6c5.9,14,7.9,28.5,6.3,43.7c-9.7,2.5-19.5,3.5-29.6,3.7
		c-0.1-1.1-0.2-2.1-0.2-3c-0.2-8.3-0.4-16.6-0.6-24.9c-0.1-5-0.2-10.1-0.2-15.1C107.3,136.4,107.3,136.2,107.3,135.8z"/>
	<path id="XMLID_339_" class="st4" d="M54,122.4c0.8,0.8,1.5,1.5,2.2,2.1c0.5,0.4,1,0.9,1.5,1.2c0.7,0.5,1.3,0.9,2,1.4
		c1.7,1.1,3.4,2.1,5.4,2.4c0.3,0,0.6,0.4,0.8,0.7c0.3,0.4,0.4,0.9,0.6,1.3c2.1,4.3,4.5,8.5,7.9,11.9c0.4,0.4,0.4,0.7,0.3,1.2
		c-2.3,7.1-2.9,14.5-2.5,22c0.1,3,0.5,6,1.6,8.8c0.1,0.1,0.1,0.3,0.1,0.6c-0.3,0-0.5,0-0.7,0c-7.8-1.9-15.2-4.8-21.9-9.4
		c-2.7-1.9-5.2-4.1-7.5-6.5c-1.8-1.9-2.7-4.1-2.9-6.6c-0.3-3.8,0.3-7.4,1.3-11c1.4-4.8,3.5-9.3,6.2-13.6c1.2-2,2.7-3.8,4.4-5.4
		C53.2,123.1,53.5,122.8,54,122.4z"/>
	<path id="XMLID_338_" class="st3" d="M105.8,179.6c-0.4,0-0.8,0.1-1.2,0.1c-8.8-0.1-17.6-0.8-26.3-2.5c-1.1-0.2-1.8-0.7-2-1.8
		c-0.3-1.5-0.8-2.9-0.9-4.4c-0.8-8.3-0.4-16.5,1.2-24.7c0-0.2,0.1-0.3,0.2-0.6c0.4,0.2,0.7,0.3,1,0.4c0.9,0.4,1.8,0.8,2.7,1
		c2.3,0.5,3.9-0.9,4-3.2c0.1-1.5-0.3-2.9-0.8-4.3c-0.7-1.9-1.4-3.8-2.1-5.6c-0.2-0.5-0.3-0.9-0.6-1.6c7.9,3.1,15.9,3.6,24.1,3.7
		c0,0.4,0.1,0.7,0.1,1c-0.5,8.8-0.7,17.5-0.5,26.3c0.1,5.3,0.2,10.6,1.1,15.9C105.9,179.2,105.8,179.3,105.8,179.6z"/>
	<path id="XMLID_337_" class="st3" d="M141,175.1c1.6-15.1-0.3-29.6-7.2-43.4c0.9-0.4,1.8-0.8,2.8-1.2c0.2,0.4,0.3,0.7,0.5,1
		c1.2,2.7,2.7,5.3,4.5,7.7c0.5,0.7,1.1,1.3,1.7,1.9c1.2,1,2.2,0.9,3-0.5c0.4-0.7,0.8-1.5,1.1-2.3c1-3,1.5-6.1,1.8-9.3
		c0.1-1.1,0.2-2.3,0.3-3.3c2.6-1.2,5.2-2.4,7.8-3.6c0.1,0.2,0.3,0.4,0.4,0.6c4,8.3,6.8,16.9,8.2,26c0.7,4.6,0.9,9.2-0.1,13.8
		c-0.2,0.8-0.5,1.3-1.2,1.7c-7,4.7-14.6,8.3-22.7,10.7C141.7,175,141.3,175,141,175.1z"/>
	<path id="XMLID_336_" class="st4" d="M173.7,109.7c0.8,0.5,1.4,0.7,1.9,1.1c3.3,2.2,5.9,5,8,8.4c1.3,2.1,1.9,4.6,2.5,7
		c1.4,6.1,1,12-1.6,17.8c-0.5,1.2-1.2,2.3-2,3.3c-3.6,4.5-7.6,8.7-11.9,12.5c-0.3,0.3-0.6,0.5-1,0.8c-0.1,0-0.2,0-0.3,0
		c0-0.2,0-0.4,0-0.6c0.8-6,0-11.8-1.4-17.6c-1.1-4.6-2.6-9.1-4.3-13.4c-0.1-0.3-0.2-0.6-0.4-0.9c0-0.1,0-0.2,0-0.3
		c0.3,0.2,0.5,0.4,0.8,0.5c0.4,0.1,0.9,0.4,1.3,0.3c1.3-0.6,2.7-1,3.6-2.5c2.5-4.5,4-9.4,4.6-14.5
		C173.5,110.9,173.6,110.4,173.7,109.7z"/>
	<path id="XMLID_335_" class="st3" d="M38,152.2c-0.3-0.4-0.4-0.5-0.5-0.6c-2.5-4.1-3.6-8.4-3.4-13.2c0.3-5.4,1.7-10.6,4.4-15.3
		c2.5-4.3,5.8-7.8,10.4-10c0.7-0.4,1.4-0.8,2.2-1.2c0.6-0.3,0.9-0.8,0.7-1.5c-0.2-0.7,0.1-1.2,0.7-1.6c0.4,3.2,0.9,6.3,1.3,9.4
		c-0.1,0-0.2,0.1-0.3,0.1c-1.4,0-1.8,0.6-1.3,1.9c0.1,0.3,0.3,0.6,0.4,0.9c-0.1,0.2-0.2,0.3-0.3,0.3c-2.9,1.9-5,4.5-6.8,7.3
		c-3.3,5.3-5.9,10.9-7,17c-0.3,1.8-0.3,3.6-0.5,5.4C38,151.4,38,151.7,38,152.2z"/>
	<path id="XMLID_334_" d="M90.9,102.4c0-0.5-0.1-0.8-0.1-1.2c0.2-6.8,0.3-13.6,0.5-20.4c0-0.3,0-0.6,0.1-0.9
		c0.1-0.3,0.3-0.6,0.6-0.7c1.6-0.4,3.2-0.9,5-0.7c0.9,0.1,1.6,0.4,2.3,1.1c0.8,0.9,1.4,1.9,1.8,3.1c1.1,3.4,1.3,6.8,1.1,10.3
		c-0.1,1.3-0.6,2.5-1.2,3.6C98.5,100.2,95,101.6,90.9,102.4z"/>
	<path id="XMLID_333_" class="st4" d="M89,80.1c-1.1,7.6-1.6,15-1.1,22.5c-0.3,0-0.6,0.1-0.8,0.1c-2.5,0.1-4.9-0.2-7.3-0.7
		c-0.8-0.1-1.1-0.5-1.2-1.3c-0.2-2.6-0.5-5.3-0.6-7.9c-0.1-3,0.1-6,0.6-9c0.1-0.6,0.3-1.1,0.9-1.2c3-0.8,5.9-1.6,8.9-2.4
		C88.5,80.1,88.7,80.1,89,80.1z"/>
	<path id="XMLID_332_" d="M60.9,88.8c5-2,10.1-3.7,15.4-5.3c-1.3,5.8-1.7,11.5-0.5,17.1C71.9,100.5,62.3,92.9,60.9,88.8z"/>
	<path id="XMLID_331_" d="M137.1,90.5c-0.7-5.7-0.7-11.4-0.5-17.2c0.5-0.1,1-0.1,1.4-0.1c1.8-0.1,3.7-0.3,5.5-0.4
		c0.5,0,0.8,0.1,1.1,0.4c0.2,0.3,0.5,0.7,0.6,1c0.2,0.5,0.4,1.1,0.7,1.6c1.2,2.7,0.8,5.2-0.4,7.8c-1.5,3.1-3.8,5.3-6.9,6.6
		c-0.3,0.1-0.6,0.2-0.9,0.3C137.5,90.5,137.4,90.5,137.1,90.5z"/>
	<path id="XMLID_330_" class="st4" d="M134.1,91.1c-2,0.1-4-0.3-6-0.9c-0.3-0.1-0.7-0.5-0.8-0.8c-0.3-1-0.6-2.1-0.7-3.1
		c-0.3-3.7-0.3-7.4,0.1-11c0.1-1,0.1-1,1.1-1.1c1.9-0.2,3.9-0.4,5.8-0.7c0.2,0,0.4,0,0.6,0c-0.2,3-0.5,5.9-0.5,8.8
		C133.7,85.2,133.9,88,134.1,91.1z"/>
	<path id="XMLID_329_" d="M124.4,74.8c-0.9,4.5-1.1,8.9-0.3,13.4c-3.1-1.1-7.7-6.5-8.7-11.1C116.3,76.4,122.2,74.8,124.4,74.8z"/>
	<path id="XMLID_328_" class="st2" d="M157,89.8c4.4,1.7,8.6,3.7,12,7c0.9,0.9,1.7,2,2.4,3.1c0.6,1,0.7,2.1,0.3,3.4
		c-2.1-2-4.7-2.4-7.4-2.6C162.7,96.5,160,93.1,157,89.8z"/>
	<path id="XMLID_327_" d="M52.5,103.5c1.8-4.3,4.1-8.5,6.4-12.8c0.6,1,1.2,1.9,1.6,2.7c0.1,0.2-0.1,0.6-0.2,0.8
		c-0.5,0.7-1.1,1.3-1.7,2c-1.7,2.1-3.4,4.3-5.1,6.4c-0.3,0.3-0.6,0.7-0.8,1C52.7,103.6,52.6,103.6,52.5,103.5z"/>
	<path id="XMLID_326_" d="M113.6,79.4c-3.3,1-6.4,1.9-9.6,2.9c-0.1-0.3-0.3-0.6-0.4-0.9c0.8-0.5,8.8-2.5,9.5-2.4
		C113.3,79,113.4,79.2,113.6,79.4z"/>
	<path id="XMLID_325_" class="st3" d="M174.3,104.5c1.2,1.4,2.2,2.7,3.3,4c0,0.1-0.1,0.1-0.1,0.2c-0.2-0.1-0.5-0.2-0.7-0.3
		c-0.7-0.3-1.4-0.8-2.1-0.9c-1.1-0.2-1.6-0.8-1.6-1.9C173.4,105.3,173.8,104.9,174.3,104.5z"/>
	<path id="XMLID_324_" class="st4" d="M162.2,125.7c-0.9-1.7-1.8-3.3-2.8-5.1c0.5-0.4,0.9-0.7,1.5-1.1c0.5,2.2,1,4.2,1.5,6.2
		C162.3,125.7,162.2,125.7,162.2,125.7z"/>
	<path id="XMLID_301_" d="M119.3,92c2.3,0,3,0.4,3.8,2.5c0.8,2.2,1,4.4,0.2,6.6c-1.2,3.5-4.6,5.1-8.1,3.7c-3.5-1.5-5.8-4.3-7.1-7.8
		c-0.4-1-0.1-1.6,0.8-2.2c0.8-0.5,1.6-0.9,2.4-1.2C113.9,92.6,116.6,92,119.3,92z M110.3,96.2c1.6,2.7,3.4,4.9,6.3,5.9
		c1.8,0.6,3.3-0.2,4-2c0.6-1.7,0.4-3.3-0.2-4.9c-0.4-1-0.4-0.9-1.4-0.9c-2.6,0.2-5.1,0.8-7.7,1.5C111,95.9,110.8,96.1,110.3,96.2z"
		/>
	<path id="XMLID_297_" class="st4" d="M110.3,96.2c0.5-0.2,0.7-0.3,0.9-0.4c2.5-0.6,5.1-1.3,7.7-1.5c1-0.1,1.1-0.1,1.4,0.9
		c0.6,1.6,0.8,3.2,0.2,4.9c-0.6,1.8-2.2,2.6-4,2C113.7,101.1,111.9,98.9,110.3,96.2z"/>
	<g id="XMLID_28_">
	</g>
	<g id="XMLID_29_">
	</g>
	<g id="XMLID_30_">
	</g>
	<g id="XMLID_31_">
	</g>
	<g id="XMLID_32_">
	</g>
	<g id="XMLID_33_">
	</g>
</g>
</svg>
